<svg width="460" height="349" viewBox="0 0 460 349" fill="none" xmlns="http://www.w3.org/2000/svg">
<path d="M191.161 170.924H121.831C121.457 170.92 121.085 170.977 120.731 171.095C119.978 171.327 119.32 171.795 118.853 172.429C118.386 173.064 118.134 173.831 118.136 174.619V284.147H194.867V174.619C194.867 174.133 194.77 173.652 194.584 173.203C194.397 172.754 194.124 172.346 193.78 172.003C193.436 171.66 193.027 171.388 192.578 171.203C192.129 171.018 191.647 170.923 191.161 170.924ZM164.922 224.961C164.925 226.738 164.339 228.465 163.256 229.874C162.223 231.241 160.787 232.249 159.15 232.757C157.514 233.264 155.759 233.246 154.134 232.703C152.508 232.161 151.094 231.122 150.091 229.733C149.087 228.344 148.545 226.675 148.54 224.961V212.253C148.56 210.094 149.432 208.03 150.966 206.51C152.5 204.99 154.572 204.138 156.731 204.138C158.89 204.138 160.962 204.99 162.496 206.51C164.03 208.03 164.902 210.094 164.922 212.253V224.961Z" fill="#1A2944"/>
<path d="M117.901 280.644V291.206C117.901 291.753 118.117 292.279 118.504 292.667C118.89 293.055 119.414 293.275 119.962 293.278H193.041C193.588 293.273 194.111 293.053 194.497 292.665C194.883 292.277 195.1 291.753 195.102 291.206V280.644H117.901Z" fill="#344768"/>
<path d="M305.965 0H9.61146C7.06518 0.00323374 4.62396 1.01546 2.82247 2.81494C1.02098 4.61443 0.0060645 7.05453 0 9.6008V209.583C0.00200811 212.132 1.01529 214.575 2.81736 216.377C4.61942 218.179 7.06296 219.193 9.61146 219.195H305.965C308.513 219.193 310.957 218.179 312.759 216.377C314.561 214.575 315.574 212.132 315.576 209.583V9.6008C315.57 7.05453 314.555 4.61443 312.754 2.81494C310.952 1.01546 308.511 0.00324499 305.965 0Z" fill="#1A2944"/>
<path d="M303.487 6.9416H12.0784C10.7151 6.94456 9.40869 7.4882 8.44569 8.4532C7.48269 9.41821 6.94178 10.7258 6.94165 12.0891V207.116C6.94399 208.478 7.48592 209.783 8.44875 210.746C9.41158 211.709 10.7168 212.251 12.0784 212.253H303.487C304.849 212.251 306.154 211.709 307.117 210.746C308.08 209.783 308.622 208.478 308.624 207.116V12.0891C308.624 10.7258 308.083 9.41821 307.12 8.4532C306.157 7.4882 304.85 6.94457 303.487 6.9416Z" fill="url(#paint0_linear_2075_11276)"/>
<path d="M249.855 293.107L247.164 280.324C247.053 279.802 246.812 279.317 246.465 278.912C246.118 278.508 245.676 278.196 245.178 278.006C244.817 277.865 244.433 277.792 244.046 277.793H76.0481C75.6607 277.792 75.2767 277.865 74.9161 278.006C74.418 278.196 73.9753 278.508 73.6283 278.912C73.2814 279.317 73.0413 279.802 72.9297 280.324L70.2385 293.107C70.1412 293.571 70.1487 294.051 70.2602 294.512C70.3717 294.972 70.5845 295.403 70.8832 295.771C71.1819 296.139 71.5589 296.436 71.9868 296.64C72.4147 296.844 72.8827 296.951 73.3568 296.951H246.726C247.202 296.954 247.672 296.848 248.101 296.643C248.53 296.438 248.907 296.138 249.204 295.766C249.503 295.399 249.717 294.97 249.83 294.51C249.942 294.05 249.951 293.571 249.855 293.107Z" fill="#1A2944"/>
<path d="M82.0976 280.095H77.8007C77.5127 280.095 77.2793 280.328 77.2793 280.616V282.777C77.2793 283.065 77.5127 283.299 77.8007 283.299H82.0976C82.3856 283.299 82.619 283.065 82.619 282.777V280.616C82.619 280.328 82.3856 280.095 82.0976 280.095Z" fill="#344768"/>
<path d="M92.7771 280.095H88.4801C88.1922 280.095 87.9587 280.328 87.9587 280.616V282.777C87.9587 283.065 88.1922 283.299 88.4801 283.299H92.7771C93.065 283.299 93.2984 283.065 93.2984 282.777V280.616C93.2984 280.328 93.065 280.095 92.7771 280.095Z" fill="#344768"/>
<path d="M103.457 280.095H99.1595C98.8716 280.095 98.6382 280.328 98.6382 280.616V282.777C98.6382 283.065 98.8716 283.299 99.1595 283.299H103.457C103.744 283.299 103.978 283.065 103.978 282.777V280.616C103.978 280.328 103.744 280.095 103.457 280.095Z" fill="#344768"/>
<path d="M114.136 280.095H109.839C109.551 280.095 109.318 280.328 109.318 280.616V282.777C109.318 283.065 109.551 283.299 109.839 283.299H114.136C114.424 283.299 114.657 283.065 114.657 282.777V280.616C114.657 280.328 114.424 280.095 114.136 280.095Z" fill="#344768"/>
<path d="M124.815 280.095H120.518C120.23 280.095 119.997 280.328 119.997 280.616V282.777C119.997 283.065 120.23 283.299 120.518 283.299H124.815C125.103 283.299 125.337 283.065 125.337 282.777V280.616C125.337 280.328 125.103 280.095 124.815 280.095Z" fill="#344768"/>
<path d="M135.495 280.095H131.198C130.91 280.095 130.676 280.328 130.676 280.616V282.777C130.676 283.065 130.91 283.299 131.198 283.299H135.495C135.783 283.299 136.016 283.065 136.016 282.777V280.616C136.016 280.328 135.783 280.095 135.495 280.095Z" fill="#344768"/>
<path d="M146.174 280.095H141.877C141.589 280.095 141.356 280.328 141.356 280.616V282.777C141.356 283.065 141.589 283.299 141.877 283.299H146.174C146.462 283.299 146.695 283.065 146.695 282.777V280.616C146.695 280.328 146.462 280.095 146.174 280.095Z" fill="#344768"/>
<path d="M156.853 280.095H152.557C152.269 280.095 152.035 280.328 152.035 280.616V282.777C152.035 283.065 152.269 283.299 152.557 283.299H156.853C157.141 283.299 157.375 283.065 157.375 282.777V280.616C157.375 280.328 157.141 280.095 156.853 280.095Z" fill="#344768"/>
<path d="M167.533 280.095H163.236C162.948 280.095 162.714 280.328 162.714 280.616V282.777C162.714 283.065 162.948 283.299 163.236 283.299H167.533C167.821 283.299 168.054 283.065 168.054 282.777V280.616C168.054 280.328 167.821 280.095 167.533 280.095Z" fill="#344768"/>
<path d="M178.212 280.095H173.915C173.627 280.095 173.394 280.328 173.394 280.616V282.777C173.394 283.065 173.627 283.299 173.915 283.299H178.212C178.5 283.299 178.734 283.065 178.734 282.777V280.616C178.734 280.328 178.5 280.095 178.212 280.095Z" fill="#344768"/>
<path d="M188.892 280.095H184.595C184.307 280.095 184.073 280.328 184.073 280.616V282.777C184.073 283.065 184.307 283.299 184.595 283.299H188.892C189.18 283.299 189.413 283.065 189.413 282.777V280.616C189.413 280.328 189.18 280.095 188.892 280.095Z" fill="#344768"/>
<path d="M199.571 280.095H195.274C194.986 280.095 194.753 280.328 194.753 280.616V282.777C194.753 283.065 194.986 283.299 195.274 283.299H199.571C199.859 283.299 200.093 283.065 200.093 282.777V280.616C200.093 280.328 199.859 280.095 199.571 280.095Z" fill="#344768"/>
<path d="M210.25 280.095H205.953C205.666 280.095 205.432 280.328 205.432 280.616V282.777C205.432 283.065 205.666 283.299 205.953 283.299H210.25C210.538 283.299 210.772 283.065 210.772 282.777V280.616C210.772 280.328 210.538 280.095 210.25 280.095Z" fill="#344768"/>
<path d="M220.93 280.095H216.633C216.345 280.095 216.112 280.328 216.112 280.616V282.777C216.112 283.065 216.345 283.299 216.633 283.299H220.93C221.218 283.299 221.451 283.065 221.451 282.777V280.616C221.451 280.328 221.218 280.095 220.93 280.095Z" fill="#344768"/>
<path d="M231.609 280.095H227.312C227.024 280.095 226.791 280.328 226.791 280.616V282.777C226.791 283.065 227.024 283.299 227.312 283.299H231.609C231.897 283.299 232.131 283.065 232.131 282.777V280.616C232.131 280.328 231.897 280.095 231.609 280.095Z" fill="#344768"/>
<path d="M242.289 280.095H237.992C237.704 280.095 237.47 280.328 237.47 280.616V282.777C237.47 283.065 237.704 283.299 237.992 283.299H242.289C242.577 283.299 242.81 283.065 242.81 282.777V280.616C242.81 280.328 242.577 280.095 242.289 280.095Z" fill="#344768"/>
<path d="M81.9715 285.434H77.6746C77.3866 285.434 77.1532 285.668 77.1532 285.956V288.117C77.1532 288.405 77.3866 288.638 77.6746 288.638H81.9715C82.2595 288.638 82.4929 288.405 82.4929 288.117V285.956C82.4929 285.668 82.2595 285.434 81.9715 285.434Z" fill="#344768"/>
<path d="M92.651 285.434H88.354C88.0661 285.434 87.8326 285.668 87.8326 285.956V288.117C87.8326 288.405 88.0661 288.638 88.354 288.638H92.651C92.9389 288.638 93.1723 288.405 93.1723 288.117V285.956C93.1723 285.668 92.9389 285.434 92.651 285.434Z" fill="#344768"/>
<path d="M103.33 285.434H99.0333C98.7454 285.434 98.512 285.668 98.512 285.956V288.117C98.512 288.405 98.7454 288.638 99.0333 288.638H103.33C103.618 288.638 103.852 288.405 103.852 288.117V285.956C103.852 285.668 103.618 285.434 103.33 285.434Z" fill="#344768"/>
<path d="M114.01 285.434H109.713C109.425 285.434 109.191 285.668 109.191 285.956V288.117C109.191 288.405 109.425 288.638 109.713 288.638H114.01C114.298 288.638 114.531 288.405 114.531 288.117V285.956C114.531 285.668 114.298 285.434 114.01 285.434Z" fill="#344768"/>
<path d="M124.689 285.434H120.392C120.104 285.434 119.871 285.668 119.871 285.956V288.117C119.871 288.405 120.104 288.638 120.392 288.638H124.689C124.977 288.638 125.21 288.405 125.21 288.117V285.956C125.21 285.668 124.977 285.434 124.689 285.434Z" fill="#344768"/>
<path d="M135.369 285.434H131.072C130.784 285.434 130.55 285.668 130.55 285.956V288.117C130.55 288.405 130.784 288.638 131.072 288.638H135.369C135.656 288.638 135.89 288.405 135.89 288.117V285.956C135.89 285.668 135.656 285.434 135.369 285.434Z" fill="#344768"/>
<path d="M146.048 285.434H141.751C141.463 285.434 141.229 285.668 141.229 285.956V288.117C141.229 288.405 141.463 288.638 141.751 288.638H146.048C146.336 288.638 146.569 288.405 146.569 288.117V285.956C146.569 285.668 146.336 285.434 146.048 285.434Z" fill="#344768"/>
<path d="M156.727 285.434H152.43C152.142 285.434 151.909 285.668 151.909 285.956V288.117C151.909 288.405 152.142 288.638 152.43 288.638H156.727C157.015 288.638 157.249 288.405 157.249 288.117V285.956C157.249 285.668 157.015 285.434 156.727 285.434Z" fill="#344768"/>
<path d="M167.407 285.434H163.11C162.822 285.434 162.588 285.668 162.588 285.956V288.117C162.588 288.405 162.822 288.638 163.11 288.638H167.407C167.695 288.638 167.928 288.405 167.928 288.117V285.956C167.928 285.668 167.695 285.434 167.407 285.434Z" fill="#344768"/>
<path d="M178.086 285.434H173.789C173.501 285.434 173.268 285.668 173.268 285.956V288.117C173.268 288.405 173.501 288.638 173.789 288.638H178.086C178.374 288.638 178.608 288.405 178.608 288.117V285.956C178.608 285.668 178.374 285.434 178.086 285.434Z" fill="#344768"/>
<path d="M188.766 285.434H184.469C184.181 285.434 183.947 285.668 183.947 285.956V288.117C183.947 288.405 184.181 288.638 184.469 288.638H188.766C189.054 288.638 189.287 288.405 189.287 288.117V285.956C189.287 285.668 189.054 285.434 188.766 285.434Z" fill="#344768"/>
<path d="M199.445 285.434H195.148C194.86 285.434 194.626 285.668 194.626 285.956V288.117C194.626 288.405 194.86 288.638 195.148 288.638H199.445C199.733 288.638 199.966 288.405 199.966 288.117V285.956C199.966 285.668 199.733 285.434 199.445 285.434Z" fill="#344768"/>
<path d="M210.124 285.434H205.827C205.539 285.434 205.306 285.668 205.306 285.956V288.117C205.306 288.405 205.539 288.638 205.827 288.638H210.124C210.412 288.638 210.646 288.405 210.646 288.117V285.956C210.646 285.668 210.412 285.434 210.124 285.434Z" fill="#344768"/>
<path d="M220.804 285.434H216.507C216.219 285.434 215.985 285.668 215.985 285.956V288.117C215.985 288.405 216.219 288.638 216.507 288.638H220.804C221.092 288.638 221.325 288.405 221.325 288.117V285.956C221.325 285.668 221.092 285.434 220.804 285.434Z" fill="#344768"/>
<path d="M231.483 285.434H227.186C226.898 285.434 226.665 285.668 226.665 285.956V288.117C226.665 288.405 226.898 288.638 227.186 288.638H231.483C231.771 288.638 232.004 288.405 232.004 288.117V285.956C232.004 285.668 231.771 285.434 231.483 285.434Z" fill="#344768"/>
<path d="M242.162 285.434H237.865C237.577 285.434 237.344 285.668 237.344 285.956V288.117C237.344 288.405 237.577 288.638 237.865 288.638H242.162C242.45 288.638 242.684 288.405 242.684 288.117V285.956C242.684 285.668 242.45 285.434 242.162 285.434Z" fill="#344768"/>
<path d="M170.611 291.842H128.936C128.648 291.842 128.414 292.075 128.414 292.363V294.525C128.414 294.812 128.648 295.046 128.936 295.046H170.611C170.898 295.046 171.132 294.812 171.132 294.525V292.363C171.132 292.075 170.898 291.842 170.611 291.842Z" fill="#344768"/>
<path opacity="0.3" d="M307.952 33.5949H4.60589C4.29054 33.5882 3.99044 33.4618 3.76987 33.2429C3.54929 33.024 3.42578 32.7299 3.42578 32.4236C3.42578 32.1174 3.54929 31.8233 3.76987 31.6043C3.99044 31.3854 4.29054 31.2591 4.60589 31.2523H307.952C308.267 31.2591 308.568 31.3854 308.788 31.6043C309.009 31.8233 309.132 32.1174 309.132 32.4236C309.132 32.7299 309.009 33.024 308.788 33.2429C308.568 33.4618 308.267 33.5882 307.952 33.5949Z" fill="#1A2944"/>
<path d="M18.6526 23.0533C21.2401 23.0533 23.3377 20.9557 23.3377 18.3682C23.3377 15.7806 21.2401 13.683 18.6526 13.683C16.065 13.683 13.9674 15.7806 13.9674 18.3682C13.9674 20.9557 16.065 23.0533 18.6526 23.0533Z" fill="#FF7455"/>
<path d="M35.0506 23.0533C37.6382 23.0533 39.7358 20.9557 39.7358 18.3682C39.7358 15.7806 37.6382 13.683 35.0506 13.683C32.4631 13.683 30.3655 15.7806 30.3655 18.3682C30.3655 20.9557 32.4631 23.0533 35.0506 23.0533Z" fill="#03DBCE"/>
<path d="M51.4486 23.0533C54.0361 23.0533 56.1337 20.9557 56.1337 18.3682C56.1337 15.7806 54.0361 13.683 51.4486 13.683C48.861 13.683 46.7634 15.7806 46.7634 18.3682C46.7634 20.9557 48.861 23.0533 51.4486 23.0533Z" fill="#1A2944"/>
<path d="M39.6849 59.0072H34.0823C32.3837 59.0072 31.0067 60.3842 31.0067 62.0828C31.0067 63.7814 32.3837 65.1584 34.0823 65.1584H39.6849C41.3835 65.1584 42.7606 63.7814 42.7606 62.0828C42.7606 60.3842 41.3835 59.0072 39.6849 59.0072Z" fill="white"/>
<path d="M103.761 59.0072H98.1588C96.4601 59.0072 95.0831 60.3842 95.0831 62.0828C95.0831 63.7814 96.4601 65.1584 98.1588 65.1584H103.761C105.46 65.1584 106.837 63.7814 106.837 62.0828C106.837 60.3842 105.46 59.0072 103.761 59.0072Z" fill="white"/>
<path d="M121.916 59.0072H116.314C114.615 59.0072 113.238 60.3842 113.238 62.0828C113.238 63.7814 114.615 65.1584 116.314 65.1584H121.916C123.615 65.1584 124.992 63.7814 124.992 62.0828C124.992 60.3842 123.615 59.0072 121.916 59.0072Z" fill="white"/>
<path d="M86.3324 58.4944H51.5114C49.8128 58.4944 48.4358 59.8714 48.4358 61.57C48.4358 63.2686 49.8128 64.6456 51.5114 64.6456H86.3324C88.0311 64.6456 89.4081 63.2686 89.4081 61.57C89.4081 59.8714 88.0311 58.4944 86.3324 58.4944Z" fill="white"/>
<path d="M171.768 58.4944H136.947C135.248 58.4944 133.871 59.8714 133.871 61.57C133.871 63.2686 135.248 64.6456 136.947 64.6456H171.768C173.466 64.6456 174.843 63.2686 174.843 61.57C174.843 59.8714 173.466 58.4944 171.768 58.4944Z" fill="white"/>
<path d="M56.772 72.8904H51.1694C49.4708 72.8904 48.0938 74.2674 48.0938 75.966C48.0938 77.6646 49.4708 79.0417 51.1694 79.0417H56.772C58.4706 79.0417 59.8476 77.6646 59.8476 75.966C59.8476 74.2674 58.4706 72.8904 56.772 72.8904Z" fill="white"/>
<path d="M120.848 72.8904H115.246C113.547 72.8904 112.17 74.2674 112.17 75.966C112.17 77.6646 113.547 79.0417 115.246 79.0417H120.848C122.547 79.0417 123.924 77.6646 123.924 75.966C123.924 74.2674 122.547 72.8904 120.848 72.8904Z" fill="white"/>
<path d="M139.003 72.8904H133.401C131.702 72.8904 130.325 74.2674 130.325 75.966C130.325 77.6646 131.702 79.0417 133.401 79.0417H139.003C140.702 79.0417 142.079 77.6646 142.079 75.966C142.079 74.2674 140.702 72.8904 139.003 72.8904Z" fill="white"/>
<path d="M103.419 72.3776H68.5983C66.8997 72.3776 65.5227 73.7546 65.5227 75.4532C65.5227 77.1518 66.8997 78.5289 68.5983 78.5289H103.419C105.118 78.5289 106.495 77.1518 106.495 75.4532C106.495 73.7546 105.118 72.3776 103.419 72.3776Z" fill="white"/>
<path d="M188.855 72.3776H154.034C152.335 72.3776 150.958 73.7546 150.958 75.4532C150.958 77.1518 152.335 78.5289 154.034 78.5289H188.855C190.553 78.5289 191.93 77.1518 191.93 75.4532C191.93 73.7546 190.553 72.3776 188.855 72.3776Z" fill="white"/>
<path d="M73.859 86.7736H68.2564C66.5578 86.7736 65.1808 88.1506 65.1808 89.8492C65.1808 91.5479 66.5578 92.9249 68.2564 92.9249H73.859C75.5576 92.9249 76.9346 91.5479 76.9346 89.8492C76.9346 88.1506 75.5576 86.7736 73.859 86.7736Z" fill="white"/>
<path d="M137.935 86.7736H132.333C130.634 86.7736 129.257 88.1506 129.257 89.8492C129.257 91.5479 130.634 92.9249 132.333 92.9249H137.935C139.634 92.9249 141.011 91.5479 141.011 89.8492C141.011 88.1506 139.634 86.7736 137.935 86.7736Z" fill="white"/>
<path d="M156.09 86.7736H150.488C148.789 86.7736 147.412 88.1506 147.412 89.8492C147.412 91.5479 148.789 92.9249 150.488 92.9249H156.09C157.789 92.9249 159.166 91.5479 159.166 89.8492C159.166 88.1506 157.789 86.7736 156.09 86.7736Z" fill="white"/>
<path d="M120.506 86.2608H85.6854C83.9868 86.2608 82.6097 87.6378 82.6097 89.3364C82.6097 91.0351 83.9868 92.4121 85.6854 92.4121H120.506C122.205 92.4121 123.582 91.0351 123.582 89.3364C123.582 87.6378 122.205 86.2608 120.506 86.2608Z" fill="white"/>
<path d="M205.942 86.2608H171.121C169.422 86.2608 168.045 87.6378 168.045 89.3364C168.045 91.0351 169.422 92.4121 171.121 92.4121H205.942C207.64 92.4121 209.017 91.0351 209.017 89.3364C209.017 87.6378 207.64 86.2608 205.942 86.2608Z" fill="white"/>
<path d="M90.946 100.657H85.3434C83.6448 100.657 82.2678 102.034 82.2678 103.732C82.2678 105.431 83.6448 106.808 85.3434 106.808H90.946C92.6447 106.808 94.0217 105.431 94.0217 103.732C94.0217 102.034 92.6447 100.657 90.946 100.657Z" fill="white"/>
<path d="M155.022 100.657H149.42C147.721 100.657 146.344 102.034 146.344 103.732C146.344 105.431 147.721 106.808 149.42 106.808H155.022C156.721 106.808 158.098 105.431 158.098 103.732C158.098 102.034 156.721 100.657 155.022 100.657Z" fill="white"/>
<path d="M173.177 100.657H167.575C165.876 100.657 164.499 102.034 164.499 103.732C164.499 105.431 165.876 106.808 167.575 106.808H173.177C174.876 106.808 176.253 105.431 176.253 103.732C176.253 102.034 174.876 100.657 173.177 100.657Z" fill="white"/>
<path d="M137.593 100.144H102.772C101.074 100.144 99.6968 101.521 99.6968 103.22C99.6968 104.918 101.074 106.295 102.772 106.295H137.593C139.292 106.295 140.669 104.918 140.669 103.22C140.669 101.521 139.292 100.144 137.593 100.144Z" fill="white"/>
<path d="M103.761 155.862H98.1588C96.4601 155.862 95.0831 157.239 95.0831 158.938C95.0831 160.637 96.4601 162.014 98.1588 162.014H103.761C105.46 162.014 106.837 160.637 106.837 158.938C106.837 157.239 105.46 155.862 103.761 155.862Z" fill="white"/>
<path d="M121.916 155.862H116.314C114.615 155.862 113.238 157.239 113.238 158.938C113.238 160.637 114.615 162.014 116.314 162.014H121.916C123.615 162.014 124.992 160.637 124.992 158.938C124.992 157.239 123.615 155.862 121.916 155.862Z" fill="white"/>
<path d="M171.768 156.375H136.947C135.248 156.375 133.871 157.752 133.871 159.451C133.871 161.149 135.248 162.526 136.947 162.526H171.768C173.466 162.526 174.843 161.149 174.843 159.451C174.843 157.752 173.466 156.375 171.768 156.375Z" fill="white"/>
<path d="M39.6849 155.862H34.0823C32.3837 155.862 31.0067 157.239 31.0067 158.938C31.0067 160.637 32.3837 162.014 34.0823 162.014H39.6849C41.3835 162.014 42.7606 160.637 42.7606 158.938C42.7606 157.239 41.3835 155.862 39.6849 155.862Z" fill="white"/>
<path d="M86.3324 156.375H51.5114C49.8128 156.375 48.4358 157.752 48.4358 159.451C48.4358 161.149 49.8128 162.526 51.5114 162.526H86.3324C88.0311 162.526 89.4081 161.149 89.4081 159.451C89.4081 157.752 88.0311 156.375 86.3324 156.375Z" fill="white"/>
<path d="M56.772 141.979H51.1694C49.4708 141.979 48.0938 143.356 48.0938 145.055C48.0938 146.753 49.4708 148.13 51.1694 148.13H56.772C58.4706 148.13 59.8476 146.753 59.8476 145.055C59.8476 143.356 58.4706 141.979 56.772 141.979Z" fill="white"/>
<path d="M120.848 141.979H115.246C113.547 141.979 112.17 143.356 112.17 145.055C112.17 146.753 113.547 148.13 115.246 148.13H120.848C122.547 148.13 123.924 146.753 123.924 145.055C123.924 143.356 122.547 141.979 120.848 141.979Z" fill="white"/>
<path d="M139.003 141.979H133.401C131.702 141.979 130.325 143.356 130.325 145.055C130.325 146.753 131.702 148.13 133.401 148.13H139.003C140.702 148.13 142.079 146.753 142.079 145.055C142.079 143.356 140.702 141.979 139.003 141.979Z" fill="white"/>
<path d="M103.419 142.492H68.5983C66.8997 142.492 65.5227 143.869 65.5227 145.568C65.5227 147.266 66.8997 148.643 68.5983 148.643H103.419C105.118 148.643 106.495 147.266 106.495 145.568C106.495 143.869 105.118 142.492 103.419 142.492Z" fill="white"/>
<path d="M73.859 128.096H68.2564C66.5578 128.096 65.1808 129.473 65.1808 131.172C65.1808 132.87 66.5578 134.247 68.2564 134.247H73.859C75.5576 134.247 76.9346 132.87 76.9346 131.172C76.9346 129.473 75.5576 128.096 73.859 128.096Z" fill="white"/>
<path d="M137.935 128.096H132.333C130.634 128.096 129.257 129.473 129.257 131.172C129.257 132.87 130.634 134.247 132.333 134.247H137.935C139.634 134.247 141.011 132.87 141.011 131.172C141.011 129.473 139.634 128.096 137.935 128.096Z" fill="white"/>
<path d="M156.09 128.096H150.488C148.789 128.096 147.412 129.473 147.412 131.172C147.412 132.87 148.789 134.247 150.488 134.247H156.09C157.789 134.247 159.166 132.87 159.166 131.172C159.166 129.473 157.789 128.096 156.09 128.096Z" fill="white"/>
<path d="M120.506 128.609H85.6854C83.9868 128.609 82.6097 129.986 82.6097 131.684C82.6097 133.383 83.9868 134.76 85.6854 134.76H120.506C122.205 134.76 123.582 133.383 123.582 131.684C123.582 129.986 122.205 128.609 120.506 128.609Z" fill="white"/>
<path d="M90.946 114.213H85.3434C83.6448 114.213 82.2678 115.59 82.2678 117.288C82.2678 118.987 83.6448 120.364 85.3434 120.364H90.946C92.6447 120.364 94.0217 118.987 94.0217 117.288C94.0217 115.59 92.6447 114.213 90.946 114.213Z" fill="white"/>
<path d="M155.022 114.213H149.42C147.721 114.213 146.344 115.59 146.344 117.288C146.344 118.987 147.721 120.364 149.42 120.364H155.022C156.721 120.364 158.098 118.987 158.098 117.288C158.098 115.59 156.721 114.213 155.022 114.213Z" fill="white"/>
<path d="M173.177 114.213H167.575C165.876 114.213 164.499 115.59 164.499 117.288C164.499 118.987 165.876 120.364 167.575 120.364H173.177C174.876 120.364 176.253 118.987 176.253 117.288C176.253 115.59 174.876 114.213 173.177 114.213Z" fill="white"/>
<path d="M137.593 114.726H102.772C101.074 114.726 99.6968 116.103 99.6968 117.801C99.6968 119.5 101.074 120.877 102.772 120.877H137.593C139.292 120.877 140.669 119.5 140.669 117.801C140.669 116.103 139.292 114.726 137.593 114.726Z" fill="white"/>
<path d="M443.707 319.706C443.111 320.009 442.505 320.311 441.909 320.605C426.468 328.325 414.115 332.713 397.218 337.521C395.792 321.592 394.414 293.593 393.075 276.237C392.723 271.732 392.371 267.95 392.029 265.282C391.943 263.863 391.653 262.465 391.169 261.129L391.228 265.282L391.374 276.237L392.225 338.889C371.206 344.45 349.615 347.562 327.882 348.163C326.748 348.193 325.634 348.212 324.559 348.232C324.178 348.242 323.807 348.251 323.435 348.251C322.214 348.261 321.002 348.271 319.78 348.271C296.877 348.288 274.057 345.521 251.822 340.033C252.301 324.269 252.779 296.584 253.239 276.237C253.336 272.26 253.424 268.556 253.522 265.282C253.708 258.285 253.903 253.242 254.089 251.551C253.924 251.851 253.796 252.169 253.708 252.499C252.803 256.713 252.186 260.984 251.861 265.282C251.519 268.556 251.177 272.26 250.835 276.237C249.017 297.375 247.121 326.116 245.167 338.303C233.533 335.127 222.117 331.2 210.992 326.546C205.128 324.103 199.369 321.468 193.714 318.64C194.789 311.604 195.913 303.718 197.066 295.538C197.965 289.195 198.893 282.677 199.841 276.237C201.307 266.288 202.812 256.535 204.337 247.945C206.565 235.397 208.852 225.312 211.119 220.68C213.269 216.282 215.419 211.943 217.5 207.79C218.224 206.334 218.947 204.897 219.65 203.5C219.816 203.167 219.983 202.845 220.149 202.522C221.644 199.581 223.09 196.766 224.468 194.128C225.651 191.87 226.775 189.74 227.84 187.775C230.42 183.006 232.609 179.205 234.231 176.801C241.013 166.513 251.11 158.854 262.845 155.096L263.138 155.018L263.344 155.106L283.329 148.968L286.251 148.069L288.215 147.463L295.134 142.196L298.896 139.333L302.424 136.645L309.324 131.397L352.04 134.026L360.356 154.05L378.983 160.862L379.305 160.715L379.589 160.598L379.882 160.676C391.615 164.438 401.711 172.096 408.496 182.381C409.415 183.759 410.529 185.577 411.789 187.775C412.864 189.642 414.037 191.772 415.308 194.128C417.116 197.48 419.09 201.262 421.181 205.356C421.64 206.255 422.109 207.174 422.578 208.102C423.448 209.822 424.331 211.578 425.227 213.37C427.308 217.523 429.458 221.862 431.608 226.27C433.475 230.091 435.361 237.948 437.218 247.945C438.752 256.252 440.277 266.044 441.752 276.237C443.687 289.45 441.625 305.271 443.374 317.428C443.482 318.201 443.599 318.953 443.707 319.706Z" fill="#DFFBFF"/>
<path d="M308.66 131.151C336.097 131.151 358.34 108.908 358.34 81.4706C358.34 54.0329 336.097 31.7902 308.66 31.7902C281.222 31.7902 258.979 54.0329 258.979 81.4706C258.979 108.908 281.222 131.151 308.66 131.151Z" fill="#FFDADF"/>
<path d="M402.31 17.0465C401.328 14.754 400.022 12.6147 398.43 10.6943C390.886 1.47878 377.165 -2.57683 363.083 8.32939C360.372 7.72372 357.546 7.88615 354.923 8.79846C353.684 9.24696 352.523 9.88668 351.483 10.6943C349.35 12.3577 347.687 14.5466 346.655 17.0465C346.104 18.3669 345.742 19.7586 345.58 21.1804C342.099 19.3717 338.415 17.984 334.606 17.0465C325.259 14.7216 315.485 14.7216 306.138 17.0465C303.143 17.8042 300.259 18.9474 297.558 20.4474C292.984 23.086 290.355 26.4185 289.886 30.1223C283.29 30.4936 276.429 33.9629 271.318 39.6506C270.742 40.2858 270.185 40.9503 269.667 41.6344C265.368 47.2585 263.059 54.1501 263.099 61.2285V62.4696H264.341C267.741 62.4662 271.11 63.1234 274.26 64.4046C276.301 65.2245 278.234 66.2911 280.016 67.5807C281.182 68.4077 282.283 69.3225 283.309 70.317C285.69 72.6214 287.706 75.2739 289.29 78.1839C293.35 85.5374 294.758 94.0636 293.277 102.332C292.938 104.246 292.441 106.129 291.792 107.961C290.869 110.575 289.652 113.077 288.166 115.418C288.108 115.505 288.059 115.593 288 115.681C287.345 116.727 286.72 117.792 286.133 118.867C285.694 119.669 285.283 120.49 284.902 121.31C283.788 123.595 282.847 125.96 282.088 128.386C280.727 132.676 279.926 137.123 279.703 141.618C279.635 142.81 279.615 144.002 279.654 145.195C279.712 148.268 280.049 151.33 280.661 154.342C280.749 154.752 280.837 155.153 280.925 155.563L281.638 158.681L283.329 166.118L284.501 171.239L285.586 175.988L287.189 173.692C287.736 172.91 289.114 170.506 290.961 167.105C292.183 164.886 293.6 162.238 295.134 159.345C297.274 155.29 299.62 150.765 301.916 146.25C302.844 144.423 303.763 142.605 304.653 140.826C306.333 137.455 307.917 134.201 309.275 131.308C310.526 128.64 311.591 126.275 312.383 124.379C312.627 125.62 312.832 126.881 312.989 128.151C313.164 129.441 313.291 130.751 313.36 132.06C313.379 132.256 313.389 132.461 313.399 132.656L313.438 133.458L313.448 133.692L314.484 133.829C320.458 134.469 326.482 134.515 332.465 133.966H332.475C340.402 133.369 348.179 131.484 355.499 128.386C359.657 126.582 363.539 124.2 367.031 121.311C368.663 119.96 370.185 118.483 371.585 116.893C371.937 116.493 372.279 116.092 372.611 115.681C374.545 113.305 376.201 110.714 377.546 107.961C378.447 106.144 379.212 104.263 379.833 102.332C383.586 90.9666 383.371 76.7865 379.188 59.9386C380.318 59.721 381.4 59.304 382.384 58.7072C385.452 56.8602 387.583 53.1956 388.247 48.7197L389.303 49.003C393.044 47.2603 396.377 44.7497 399.085 41.6345C399.621 41.0002 400.124 40.338 400.59 39.6507C405.369 32.6143 405.408 24.1708 402.31 17.0465Z" fill="#1A2944"/>
<path d="M459.949 227.022C456.978 267.95 460.056 285.971 443.658 319.715C428.738 327.018 413.197 332.977 397.219 337.521C395.557 337.99 393.893 338.446 392.225 338.889C371.206 344.45 349.615 347.562 327.882 348.163C326.748 348.193 325.634 348.212 324.559 348.232C324.178 348.242 323.807 348.251 323.436 348.251C322.214 348.261 321.002 348.271 319.781 348.271C296.878 348.288 274.057 345.521 251.822 340.033C249.594 339.485 247.375 338.909 245.167 338.303C233.533 335.127 222.118 331.2 210.992 326.546C205.128 324.103 199.369 321.468 193.714 318.64C192.434 317.995 191.154 317.35 189.893 316.686C183.414 305.291 179.729 291.433 179.651 274.781C184.137 246.089 450.04 202.278 459.949 227.022Z" fill="#1A2944"/>
<path d="M194.241 117.786C194.306 116.9 194.18 116.01 193.873 115.177C193.565 114.343 193.082 113.586 192.457 112.955C191.831 112.323 191.078 111.834 190.248 111.518C189.417 111.203 188.529 111.068 187.642 111.125C187.312 111.138 186.983 111.179 186.66 111.248L147.802 120.026C146.934 120.237 146.119 120.627 145.411 121.171C144.702 121.716 144.116 122.403 143.689 123.188C143.119 123.209 142.553 123.291 142.001 123.433C140.792 123.707 139.648 124.217 138.636 124.933C137.624 125.649 136.762 126.557 136.101 127.606C135.44 128.655 134.992 129.824 134.782 131.046C134.573 132.268 134.606 133.519 134.88 134.728C135.154 135.938 135.664 137.081 136.38 138.093C137.096 139.106 138.004 139.967 139.053 140.628C141.171 141.964 143.733 142.403 146.175 141.849C147.565 141.527 148.866 140.898 149.981 140.008L163.149 177.086C163.807 178.248 164.823 179.165 166.045 179.702C167.268 180.239 168.631 180.365 169.932 180.063L195.193 174.354C196.483 174.052 197.645 173.348 198.511 172.344C199.377 171.341 199.902 170.088 200.012 168.768L194.241 117.786ZM145.592 139.21C143.848 139.603 142.019 139.289 140.506 138.336C138.993 137.383 137.92 135.869 137.522 134.126C137.124 132.383 137.433 130.553 138.382 129.038C139.331 127.522 140.842 126.445 142.584 126.042C142.707 126.011 142.83 126.042 142.952 126.011C142.943 127.13 143.229 128.231 143.781 129.204L148.6 137.614C147.761 138.409 146.721 138.961 145.592 139.21Z" fill="#1A2944"/>
<path d="M187.642 111.125C188.011 116.036 179.601 121.684 168.336 123.924C157.992 126.042 148.723 124.569 146.114 120.702C146.638 120.39 147.208 120.163 147.802 120.026L186.66 111.248C186.983 111.179 187.312 111.138 187.642 111.125Z" fill="#344768"/>
<path d="M163.266 235.793L185.092 224.88L166.903 175.772L162.11 151.007C161.487 147.789 160.031 144.791 157.887 142.313C155.742 139.835 152.985 137.962 149.891 136.883C146.796 135.804 143.473 135.556 140.252 136.164C137.032 136.772 134.027 138.215 131.539 140.347C127.852 143.508 125.537 147.977 125.082 152.813C124.628 157.648 126.07 162.47 129.103 166.263L146.897 188.504L163.266 235.793Z" fill="#FFDADF"/>
<path d="M185.092 215.786L155.99 230.337L178.075 299.536C179.661 304.505 182.504 308.98 186.328 312.527C190.153 316.074 194.829 318.573 199.903 319.781C206.16 321.271 212.728 320.729 218.656 318.234C224.585 315.74 229.564 311.422 232.873 305.907L291.435 205.529C295.585 198.612 296.866 190.346 295.005 182.498C293.143 174.649 288.286 167.84 281.472 163.524C277.806 161.203 273.694 159.679 269.401 159.053C265.108 158.426 260.731 158.711 256.556 159.887C252.38 161.064 248.499 163.107 245.165 165.883C241.831 168.659 239.119 172.105 237.205 175.999L201.461 252.163L185.092 215.786Z" fill="#DFFBFF"/>
<path d="M173.593 153.25C173.539 153.25 173.485 153.241 173.434 153.224L167.081 151.036C167.004 151.01 166.935 150.965 166.88 150.905C166.825 150.846 166.786 150.773 166.766 150.694C166.746 150.616 166.746 150.533 166.766 150.455C166.786 150.376 166.825 150.304 166.88 150.244L171.605 145.099C171.649 145.052 171.701 145.013 171.759 144.986C171.817 144.958 171.88 144.943 171.945 144.94C172.009 144.937 172.073 144.947 172.133 144.969C172.194 144.991 172.249 145.024 172.297 145.068C172.344 145.111 172.382 145.164 172.409 145.222C172.437 145.28 172.452 145.344 172.454 145.408C172.457 145.472 172.447 145.536 172.425 145.597C172.402 145.657 172.369 145.712 172.325 145.76L168.104 150.355L173.752 152.3C173.861 152.337 173.954 152.412 174.013 152.512C174.072 152.611 174.094 152.728 174.075 152.842C174.056 152.956 173.997 153.06 173.909 153.135C173.821 153.209 173.709 153.25 173.593 153.25Z" fill="url(#paint1_linear_2075_11276)"/>
<path d="M182.302 151.467C182.205 151.467 182.11 151.438 182.029 151.384C181.948 151.33 181.886 151.252 181.849 151.162C181.813 151.072 181.804 150.973 181.824 150.878C181.844 150.782 181.893 150.695 181.963 150.628L186.257 146.475L180.488 144.098C180.429 144.074 180.375 144.038 180.329 143.993C180.283 143.947 180.247 143.893 180.223 143.834C180.198 143.775 180.185 143.711 180.185 143.647C180.185 143.583 180.197 143.519 180.222 143.46C180.246 143.401 180.282 143.347 180.328 143.301C180.373 143.256 180.427 143.22 180.486 143.195C180.545 143.171 180.609 143.158 180.673 143.158C180.737 143.158 180.801 143.171 180.86 143.195L187.319 145.857C187.394 145.888 187.461 145.937 187.512 145.999C187.563 146.062 187.598 146.137 187.613 146.217C187.629 146.296 187.624 146.378 187.599 146.456C187.575 146.533 187.531 146.603 187.473 146.659L182.642 151.33C182.551 151.418 182.429 151.468 182.302 151.467Z" fill="url(#paint2_linear_2075_11276)"/>
<path d="M174.927 156.239C174.878 156.239 174.83 156.232 174.783 156.217C174.722 156.199 174.665 156.168 174.615 156.127C174.566 156.086 174.525 156.036 174.495 155.979C174.465 155.922 174.446 155.86 174.44 155.796C174.434 155.732 174.441 155.668 174.46 155.607L178.969 140.948C179.008 140.824 179.094 140.721 179.208 140.661C179.323 140.6 179.457 140.588 179.58 140.626C179.704 140.664 179.807 140.75 179.868 140.864C179.929 140.978 179.941 141.112 179.904 141.236L175.394 155.895C175.363 155.995 175.301 156.082 175.217 156.144C175.133 156.206 175.031 156.239 174.927 156.239Z" fill="url(#paint3_linear_2075_11276)"/>
<defs>
<linearGradient id="paint0_linear_2075_11276" x1="6.94165" y1="109.597" x2="308.624" y2="109.597" gradientUnits="userSpaceOnUse">
<stop stop-color="#03BCDB"/>
<stop offset="1" stop-color="#03DBCE"/>
</linearGradient>
<linearGradient id="paint1_linear_2075_11276" x1="166.751" y1="149.095" x2="174.082" y2="149.095" gradientUnits="userSpaceOnUse">
<stop stop-color="#03BCDB"/>
<stop offset="1" stop-color="#03DBCE"/>
</linearGradient>
<linearGradient id="paint2_linear_2075_11276" x1="180.185" y1="147.313" x2="187.622" y2="147.313" gradientUnits="userSpaceOnUse">
<stop stop-color="#03BCDB"/>
<stop offset="1" stop-color="#03DBCE"/>
</linearGradient>
<linearGradient id="paint3_linear_2075_11276" x1="174.438" y1="148.422" x2="179.925" y2="148.422" gradientUnits="userSpaceOnUse">
<stop stop-color="#03BCDB"/>
<stop offset="1" stop-color="#03DBCE"/>
</linearGradient>
</defs>
</svg>
