<svg width="680" height="320" viewBox="0 0 680 320" fill="none" xmlns="http://www.w3.org/2000/svg">
<rect width="680" height="320" fill="#E6E6E6"/>
<g clip-path="url(#clip0_0_1)">
<rect width="680" height="320" fill="white"/>
<rect width="680" height="320" fill="#7879F1"/>
<g clip-path="url(#clip1_0_1)">
<path d="M528.426 88.8815C535.178 88.8815 540.652 83.4052 540.652 76.6497C540.652 69.8943 535.178 64.418 528.426 64.418C521.675 64.418 516.201 69.8943 516.201 76.6497C516.201 83.4052 521.675 88.8815 528.426 88.8815Z" fill="#FD6584"/>
<path d="M555.788 70.8555C555.443 69.7245 554.775 68.7191 553.867 67.9629C552.958 67.2068 551.848 66.7329 550.674 66.5995H550.61H550.509C546.416 66.0681 541.864 67.36 538.801 70.1729C537.668 71.197 536.759 72.4449 536.132 73.8378C535.564 73.0619 534.816 72.4361 533.952 72.0146C533.088 71.5932 532.134 71.3887 531.173 71.4189C529.934 71.502 528.751 71.9647 527.785 72.7442C526.818 73.5237 526.115 74.5822 525.77 75.7757C525.736 75.9163 525.746 76.0643 525.799 76.1989C525.852 76.3336 525.946 76.4483 526.068 76.527C526.436 76.8429 526.874 77.066 527.345 77.1775C528.357 77.3928 529.378 77.5898 530.399 77.7685C532.396 78.1289 534.401 78.4175 536.416 78.6343C537.75 78.7779 539.085 78.8909 540.422 78.9733C543.169 79.1474 545.967 79.1886 548.737 79.1016C550.111 79.0558 551.429 79.01 552.684 78.4053C553.6 77.9581 554.382 77.277 554.95 76.4308C555.49 75.6197 555.845 74.6998 555.989 73.7364C556.134 72.7729 556.066 71.7894 555.788 70.8555Z" fill="#E6E6E6"/>
<path d="M530.637 88.676C530.613 88.1635 530.527 87.6558 530.381 87.1642C530.034 86.0331 529.365 85.0279 528.456 84.2719C527.547 83.5159 526.436 83.0419 525.262 82.9083H525.184L525.078 82.8854C522.813 82.6092 520.514 82.8456 518.352 83.5771C515.028 84.6904 512.112 86.9351 510.706 90.142C510.137 89.365 509.387 88.7387 508.521 88.3172C507.656 87.8957 506.7 87.6917 505.738 87.7231C504.499 87.8061 503.316 88.2689 502.349 89.0484C501.383 89.8279 500.679 90.8863 500.335 92.0798C500.299 92.2257 500.31 92.3793 500.367 92.5184C500.424 92.6575 500.523 92.775 500.651 92.854C501.019 93.1699 501.457 93.393 501.929 93.5046C502.945 93.7199 503.961 93.9169 504.987 94.0955C506.983 94.4437 508.989 94.7262 511.004 94.943C515.097 95.3795 519.215 95.5326 523.329 95.4012C524.703 95.3554 526.022 95.3095 527.276 94.7048C528.191 94.2575 528.971 93.5764 529.538 92.7303C530.343 91.5381 530.73 90.1119 530.637 88.676Z" fill="#E6E6E6"/>
<path d="M689.862 237.101C690.039 245.44 688.889 253.755 686.456 261.734C686.369 262.027 686.268 262.315 686.167 262.604H636.003C636.72 259.071 637.859 255.636 639.396 252.374C643.567 243.51 650.385 235.923 657.115 228.392C666.383 218.006 675.43 207.712 676.863 194.207C680.528 199.814 683.453 205.871 685.563 212.229C682.971 213.19 680.592 214.65 678.562 216.527C677.999 217.053 677.404 217.818 677.692 218.551C677.962 219.165 678.713 219.371 679.377 219.509C680.98 219.816 682.582 220.123 684.185 220.425C685.444 220.682 686.721 220.92 687.999 221.158C689.13 226.4 689.754 231.739 689.862 237.101Z" fill="#F2F2F2"/>
<path d="M732 231.576C723.96 236.469 718.846 244.041 714.67 252.512C711.038 253.342 707.686 255.106 704.945 257.629C704.363 258.156 703.768 258.921 704.075 259.654C704.331 260.268 705.096 260.474 705.76 260.612C707.344 260.919 708.965 261.225 710.549 261.528C710.393 261.885 710.242 262.261 710.091 262.618H656.928C659.34 259.362 662.012 256.307 664.918 253.483C665.549 252.851 666.195 252.256 666.859 251.651C673.637 245.524 681.418 240.61 689.862 237.124C703.164 231.553 717.711 229.638 732 231.576Z" fill="#F2F2F2"/>
<path d="M665.787 262.604H618.452C618.195 258.811 618.218 255.005 618.521 251.215C620.412 227.81 633.14 205.513 652.344 192.008C649.889 200.753 651.149 209.448 653.717 218.18C653.36 218.299 652.998 218.4 652.678 218.537C650.084 219.496 647.704 220.954 645.672 222.83C645.109 223.361 644.514 224.127 644.802 224.86C645.059 225.473 645.828 225.68 646.492 225.817C648.095 226.124 649.697 226.431 651.277 226.733C652.559 226.99 653.836 227.228 655.114 227.485C655.709 227.585 656.304 227.704 656.904 227.824C656.986 228.03 657.037 228.218 657.124 228.405C660.123 236.651 663.392 245.008 664.908 253.483C665.287 255.604 665.549 257.746 665.691 259.896C665.755 260.799 665.787 261.701 665.787 262.604Z" fill="#F2F2F2"/>
<path d="M407.814 237.101C407.99 245.44 406.841 253.755 404.407 261.734C404.32 262.027 404.219 262.315 404.118 262.604H353.954C354.671 259.071 355.811 255.636 357.347 252.374C361.518 243.51 368.336 235.923 375.067 228.392C384.334 218.006 393.381 207.712 394.815 194.207C398.48 199.814 401.404 205.871 403.514 212.229C400.922 213.19 398.543 214.65 396.513 216.527C395.95 217.053 395.355 217.818 395.643 218.551C395.913 219.165 396.664 219.371 397.328 219.509C398.931 219.816 400.533 220.123 402.136 220.425C403.395 220.682 404.673 220.92 405.95 221.158C407.081 226.4 407.706 231.739 407.814 237.101Z" fill="#F2F2F2"/>
<path d="M449.951 231.576C441.911 236.469 436.797 244.041 432.621 252.512C428.989 253.342 425.637 255.106 422.896 257.629C422.314 258.156 421.719 258.921 422.026 259.654C422.282 260.268 423.047 260.474 423.711 260.612C425.295 260.919 426.916 261.225 428.5 261.528C428.345 261.885 428.193 262.261 428.042 262.618H374.879C377.291 259.362 379.963 256.307 382.869 253.483C383.501 252.851 384.146 252.256 384.81 251.651C391.588 245.524 399.37 240.61 407.814 237.124C421.115 231.553 435.662 229.638 449.951 231.576Z" fill="#F2F2F2"/>
<path d="M383.739 262.604H336.404C336.148 258.811 336.171 255.005 336.473 251.215C338.364 227.81 351.093 205.513 370.296 192.008C367.842 200.753 369.101 209.448 371.669 218.18C371.312 218.299 370.95 218.4 370.63 218.537C368.037 219.496 365.656 220.954 363.625 222.83C363.061 223.361 362.466 224.127 362.755 224.86C363.011 225.473 363.78 225.68 364.444 225.817C366.047 226.124 367.649 226.431 369.229 226.733C370.511 226.99 371.788 227.228 373.066 227.485C373.661 227.585 374.256 227.704 374.856 227.824C374.939 228.03 374.989 228.218 375.076 228.405C378.075 236.651 381.344 245.008 382.86 253.483C383.239 255.604 383.501 257.746 383.643 259.896C383.707 260.799 383.739 261.701 383.739 262.604Z" fill="#F2F2F2"/>
<path d="M559.955 242.722L602.249 246.479L602.706 246.52V65.9573L602.249 65.6412C593.436 59.4719 583.903 54.4042 573.861 50.5508L571.699 80.3743L571.503 83.123L569.383 112.681L568.723 121.779L560.056 241.669L559.955 242.722Z" fill="#E6E6E6"/>
<path d="M455.373 62.5946C455.071 62.787 454.768 62.9794 454.457 63.181V246.52L455.373 246.438L497.208 242.722L497.131 241.669L488.463 121.779L487.804 112.681L485.666 83.1045L485.469 80.3558L483.202 49.0801C473.427 52.4757 464.087 57.0118 455.373 62.5946Z" fill="#E6E6E6"/>
<path d="M454.456 63.1801C453.848 63.5741 453.239 63.9773 452.625 64.385V249.007C452.625 253.62 455.372 257.487 459.035 258.471C459.632 258.632 460.248 258.714 460.867 258.714H596.763C597.381 258.714 597.997 258.633 598.594 258.471C599.953 258.096 601.184 257.358 602.157 256.337C604.012 254.352 605.026 251.724 604.986 249.007V67.5918C604.235 67.0375 603.48 66.4878 602.697 65.9518L602.239 65.6357V249.021C602.24 249.615 602.169 250.207 602.028 250.784C601.383 253.51 599.254 255.507 596.745 255.507H460.867C457.836 255.507 455.372 252.598 455.372 249.021V62.5938C455.061 62.7816 454.759 62.9786 454.456 63.1801Z" fill="#E6E6E6"/>
<path d="M603.608 80.375H453.999V83.1054H603.608V80.375Z" fill="#E6E6E6"/>
<path d="M557.789 45.5521C556.873 45.3276 555.958 45.094 555.042 44.9199V119.048H557.789V45.5521Z" fill="#E6E6E6"/>
<path d="M502.533 44C501.618 44.1695 500.702 44.3436 499.786 44.5314V119.049H502.533V44Z" fill="#E6E6E6"/>
<path d="M424.668 253.951C424.665 255.52 424.966 257.076 425.552 258.532C425.777 259.095 426.045 259.64 426.353 260.163C426.748 260.844 427.208 261.486 427.727 262.078C428.877 263.389 430.294 264.44 431.882 265.16C433.471 265.879 435.195 266.252 436.939 266.251H616.118C619.375 266.251 622.498 264.957 624.801 262.653C627.104 260.348 628.398 257.223 628.398 253.964C628.398 250.706 627.104 247.581 624.801 245.276C622.498 242.972 619.375 241.678 616.118 241.678H436.948C433.695 241.681 430.575 242.975 428.274 245.276C425.972 247.576 424.675 250.696 424.668 253.951Z" fill="#E6E6E6"/>
<path d="M602.702 112.682H453.999V121.78H602.702V112.682Z" fill="#E6E6E6"/>
<path d="M534.717 114.953H521.983C521.988 113.629 522.518 112.36 523.456 111.426C524.394 110.492 525.664 109.968 526.988 109.969H529.712C530.369 109.968 531.02 110.097 531.627 110.348C532.234 110.599 532.786 110.968 533.251 111.432C533.715 111.897 534.084 112.449 534.336 113.056C534.587 113.663 534.717 114.314 534.717 114.971V114.953Z" fill="#E6E6E6"/>
<path d="M329 260.969C332.978 265.684 337.28 270.116 341.875 274.231H711.185C715.781 270.116 720.083 265.684 724.061 260.969H329Z" fill="#3F3D56"/>
<path d="M510.633 216.618V263.603H543.531V216.618C543.531 216.28 543.423 215.951 543.223 215.679C543.023 215.407 542.741 215.206 542.418 215.107C542.27 215.058 542.116 215.034 541.96 215.033H512.222C512.013 215.033 511.807 215.073 511.614 215.153C511.421 215.232 511.246 215.349 511.098 215.496C510.951 215.643 510.834 215.818 510.754 216.011C510.674 216.203 510.633 216.41 510.633 216.618ZM523.453 232.762C523.453 231.83 523.823 230.937 524.482 230.278C525.14 229.619 526.034 229.249 526.965 229.249C527.896 229.249 528.79 229.619 529.448 230.278C530.107 230.937 530.477 231.83 530.477 232.762V238.214C530.477 239.146 530.107 240.04 529.448 240.699C528.79 241.358 527.896 241.728 526.965 241.728C526.034 241.728 525.14 241.358 524.482 240.699C523.823 240.04 523.453 239.146 523.453 238.214V232.762Z" fill="#2F2E41"/>
<path d="M510.532 262.102V266.646C510.532 266.881 510.625 267.106 510.791 267.273C510.956 267.439 511.181 267.534 511.416 267.535H542.748C542.983 267.534 543.208 267.439 543.373 267.273C543.539 267.106 543.632 266.881 543.632 266.646V262.115L510.532 262.102Z" fill="#3F3D56"/>
<path d="M458.88 145.832V231.619C458.88 232.713 459.314 233.762 460.087 234.535C460.86 235.308 461.908 235.742 463.001 235.742H590.06C590.601 235.742 591.137 235.636 591.637 235.429C592.137 235.221 592.591 234.918 592.974 234.535C593.357 234.152 593.66 233.697 593.867 233.197C594.074 232.697 594.181 232.161 594.181 231.619V145.832C594.181 145.291 594.074 144.754 593.867 144.254C593.66 143.754 593.357 143.299 592.974 142.917C592.591 142.534 592.137 142.23 591.637 142.023C591.137 141.816 590.601 141.709 590.06 141.709H463.001C461.908 141.709 460.86 142.143 460.087 142.917C459.314 143.69 458.88 144.739 458.88 145.832Z" fill="#3F3D56"/>
<path d="M461.86 146.898V230.559C461.866 231.142 462.102 231.698 462.516 232.107C462.931 232.517 463.49 232.746 464.072 232.744H589.002C589.586 232.743 590.145 232.511 590.558 232.098C590.971 231.685 591.203 231.125 591.204 230.541V146.898C591.204 146.313 590.973 145.752 590.56 145.338C590.147 144.924 589.587 144.691 589.002 144.689H464.072C463.782 144.689 463.494 144.746 463.226 144.856C462.958 144.967 462.714 145.129 462.508 145.335C462.303 145.54 462.14 145.783 462.029 146.052C461.918 146.32 461.86 146.607 461.86 146.898Z" fill="#03BCDB"/>
<path d="M487.336 268.588C487.464 268.746 487.626 268.874 487.81 268.962C487.994 269.05 488.195 269.096 488.398 269.096H562.729C563.094 269.096 563.443 268.952 563.701 268.694C563.958 268.436 564.103 268.086 564.103 267.722C564.103 267.628 564.094 267.535 564.075 267.443L562.922 261.945C562.856 261.639 562.687 261.364 562.444 261.167C562.201 260.969 561.898 260.861 561.585 260.859H489.548C489.234 260.861 488.931 260.969 488.688 261.167C488.445 261.364 488.276 261.639 488.211 261.945L487.057 267.443C487.016 267.642 487.019 267.849 487.067 268.047C487.116 268.245 487.208 268.43 487.336 268.588Z" fill="#2F2E41"/>
<path d="M560.825 261.867H558.984C558.86 261.867 558.76 261.968 558.76 262.092V263.017C558.76 263.141 558.86 263.242 558.984 263.242H560.825C560.949 263.242 561.049 263.141 561.049 263.017V262.092C561.049 261.968 560.949 261.867 560.825 261.867Z" fill="#3F3D56"/>
<path d="M556.247 261.867H554.406C554.282 261.867 554.182 261.968 554.182 262.092V263.017C554.182 263.141 554.282 263.242 554.406 263.242H556.247C556.371 263.242 556.471 263.141 556.471 263.017V262.092C556.471 261.968 556.371 261.867 556.247 261.867Z" fill="#3F3D56"/>
<path d="M551.668 261.867H549.827C549.703 261.867 549.603 261.968 549.603 262.092V263.017C549.603 263.141 549.703 263.242 549.827 263.242H551.668C551.791 263.242 551.892 263.141 551.892 263.017V262.092C551.892 261.968 551.791 261.867 551.668 261.867Z" fill="#3F3D56"/>
<path d="M547.088 261.867H545.248C545.124 261.867 545.023 261.968 545.023 262.092V263.017C545.023 263.141 545.124 263.242 545.248 263.242H547.088C547.212 263.242 547.313 263.141 547.313 263.017V262.092C547.313 261.968 547.212 261.867 547.088 261.867Z" fill="#3F3D56"/>
<path d="M542.51 261.867H540.67C540.546 261.867 540.445 261.968 540.445 262.092V263.017C540.445 263.141 540.546 263.242 540.67 263.242H542.51C542.634 263.242 542.735 263.141 542.735 263.017V262.092C542.735 261.968 542.634 261.867 542.51 261.867Z" fill="#3F3D56"/>
<path d="M537.931 261.867H536.091C535.967 261.867 535.866 261.968 535.866 262.092V263.017C535.866 263.141 535.967 263.242 536.091 263.242H537.931C538.055 263.242 538.156 263.141 538.156 263.017V262.092C538.156 261.968 538.055 261.867 537.931 261.867Z" fill="#3F3D56"/>
<path d="M533.352 261.867H531.511C531.388 261.867 531.287 261.968 531.287 262.092V263.017C531.287 263.141 531.388 263.242 531.511 263.242H533.352C533.476 263.242 533.576 263.141 533.576 263.017V262.092C533.576 261.968 533.476 261.867 533.352 261.867Z" fill="#3F3D56"/>
<path d="M528.774 261.867H526.933C526.809 261.867 526.709 261.968 526.709 262.092V263.017C526.709 263.141 526.809 263.242 526.933 263.242H528.774C528.898 263.242 528.998 263.141 528.998 263.017V262.092C528.998 261.968 528.898 261.867 528.774 261.867Z" fill="#3F3D56"/>
<path d="M524.195 261.867H522.354C522.23 261.867 522.13 261.968 522.13 262.092V263.017C522.13 263.141 522.23 263.242 522.354 263.242H524.195C524.319 263.242 524.419 263.141 524.419 263.017V262.092C524.419 261.968 524.319 261.867 524.195 261.867Z" fill="#3F3D56"/>
<path d="M519.617 261.867H517.776C517.652 261.867 517.552 261.968 517.552 262.092V263.017C517.552 263.141 517.652 263.242 517.776 263.242H519.617C519.741 263.242 519.841 263.141 519.841 263.017V262.092C519.841 261.968 519.741 261.867 519.617 261.867Z" fill="#3F3D56"/>
<path d="M515.038 261.867H513.197C513.073 261.867 512.973 261.968 512.973 262.092V263.017C512.973 263.141 513.073 263.242 513.197 263.242H515.038C515.162 263.242 515.262 263.141 515.262 263.017V262.092C515.262 261.968 515.162 261.867 515.038 261.867Z" fill="#3F3D56"/>
<path d="M510.459 261.867H508.618C508.494 261.867 508.394 261.968 508.394 262.092V263.017C508.394 263.141 508.494 263.242 508.618 263.242H510.459C510.582 263.242 510.683 263.141 510.683 263.017V262.092C510.683 261.968 510.582 261.867 510.459 261.867Z" fill="#3F3D56"/>
<path d="M505.88 261.867H504.04C503.916 261.867 503.815 261.968 503.815 262.092V263.017C503.815 263.141 503.916 263.242 504.04 263.242H505.88C506.004 263.242 506.105 263.141 506.105 263.017V262.092C506.105 261.968 506.004 261.867 505.88 261.867Z" fill="#3F3D56"/>
<path d="M501.301 261.867H499.461C499.337 261.867 499.236 261.968 499.236 262.092V263.017C499.236 263.141 499.337 263.242 499.461 263.242H501.301C501.425 263.242 501.526 263.141 501.526 263.017V262.092C501.526 261.968 501.425 261.867 501.301 261.867Z" fill="#3F3D56"/>
<path d="M496.723 261.867H494.883C494.759 261.867 494.658 261.968 494.658 262.092V263.017C494.658 263.141 494.759 263.242 494.883 263.242H496.723C496.847 263.242 496.948 263.141 496.948 263.017V262.092C496.948 261.968 496.847 261.867 496.723 261.867Z" fill="#3F3D56"/>
<path d="M492.144 261.867H490.303C490.18 261.867 490.079 261.968 490.079 262.092V263.017C490.079 263.141 490.18 263.242 490.303 263.242H492.144C492.268 263.242 492.368 263.141 492.368 263.017V262.092C492.368 261.968 492.268 261.867 492.144 261.867Z" fill="#3F3D56"/>
<path d="M560.879 264.158H559.039C558.915 264.158 558.814 264.259 558.814 264.383V265.308C558.814 265.432 558.915 265.533 559.039 265.533H560.879C561.003 265.533 561.104 265.432 561.104 265.308V264.383C561.104 264.259 561.003 264.158 560.879 264.158Z" fill="#3F3D56"/>
<path d="M556.301 264.158H554.461C554.337 264.158 554.236 264.259 554.236 264.383V265.308C554.236 265.432 554.337 265.533 554.461 265.533H556.301C556.425 265.533 556.526 265.432 556.526 265.308V264.383C556.526 264.259 556.425 264.158 556.301 264.158Z" fill="#3F3D56"/>
<path d="M551.722 264.158H549.882C549.758 264.158 549.657 264.259 549.657 264.383V265.308C549.657 265.432 549.758 265.533 549.882 265.533H551.722C551.846 265.533 551.947 265.432 551.947 265.308V264.383C551.947 264.259 551.846 264.158 551.722 264.158Z" fill="#3F3D56"/>
<path d="M547.144 264.158H545.303C545.18 264.158 545.079 264.259 545.079 264.383V265.308C545.079 265.432 545.18 265.533 545.303 265.533H547.144C547.268 265.533 547.368 265.432 547.368 265.308V264.383C547.368 264.259 547.268 264.158 547.144 264.158Z" fill="#3F3D56"/>
<path d="M542.565 264.158H540.724C540.6 264.158 540.5 264.259 540.5 264.383V265.308C540.5 265.432 540.6 265.533 540.724 265.533H542.565C542.689 265.533 542.789 265.432 542.789 265.308V264.383C542.789 264.259 542.689 264.158 542.565 264.158Z" fill="#3F3D56"/>
<path d="M537.987 264.158H536.146C536.022 264.158 535.922 264.259 535.922 264.383V265.308C535.922 265.432 536.022 265.533 536.146 265.533H537.987C538.111 265.533 538.211 265.432 538.211 265.308V264.383C538.211 264.259 538.111 264.158 537.987 264.158Z" fill="#3F3D56"/>
<path d="M533.408 264.158H531.567C531.443 264.158 531.343 264.259 531.343 264.383V265.308C531.343 265.432 531.443 265.533 531.567 265.533H533.408C533.532 265.533 533.632 265.432 533.632 265.308V264.383C533.632 264.259 533.532 264.158 533.408 264.158Z" fill="#3F3D56"/>
<path d="M528.829 264.158H526.988C526.864 264.158 526.764 264.259 526.764 264.383V265.308C526.764 265.432 526.864 265.533 526.988 265.533H528.829C528.953 265.533 529.053 265.432 529.053 265.308V264.383C529.053 264.259 528.953 264.158 528.829 264.158Z" fill="#3F3D56"/>
<path d="M524.25 264.158H522.409C522.285 264.158 522.185 264.259 522.185 264.383V265.308C522.185 265.432 522.285 265.533 522.409 265.533H524.25C524.373 265.533 524.474 265.432 524.474 265.308V264.383C524.474 264.259 524.373 264.158 524.25 264.158Z" fill="#3F3D56"/>
<path d="M519.671 264.158H517.831C517.707 264.158 517.606 264.259 517.606 264.383V265.308C517.606 265.432 517.707 265.533 517.831 265.533H519.671C519.795 265.533 519.896 265.432 519.896 265.308V264.383C519.896 264.259 519.795 264.158 519.671 264.158Z" fill="#3F3D56"/>
<path d="M515.092 264.158H513.252C513.128 264.158 513.027 264.259 513.027 264.383V265.308C513.027 265.432 513.128 265.533 513.252 265.533H515.092C515.216 265.533 515.317 265.432 515.317 265.308V264.383C515.317 264.259 515.216 264.158 515.092 264.158Z" fill="#3F3D56"/>
<path d="M510.514 264.158H508.674C508.55 264.158 508.449 264.259 508.449 264.383V265.308C508.449 265.432 508.55 265.533 508.674 265.533H510.514C510.638 265.533 510.739 265.432 510.739 265.308V264.383C510.739 264.259 510.638 264.158 510.514 264.158Z" fill="#3F3D56"/>
<path d="M505.935 264.158H504.094C503.971 264.158 503.87 264.259 503.87 264.383V265.308C503.87 265.432 503.971 265.533 504.094 265.533H505.935C506.059 265.533 506.159 265.432 506.159 265.308V264.383C506.159 264.259 506.059 264.158 505.935 264.158Z" fill="#3F3D56"/>
<path d="M501.357 264.158H499.516C499.392 264.158 499.292 264.259 499.292 264.383V265.308C499.292 265.432 499.392 265.533 499.516 265.533H501.357C501.481 265.533 501.581 265.432 501.581 265.308V264.383C501.581 264.259 501.481 264.158 501.357 264.158Z" fill="#3F3D56"/>
<path d="M496.778 264.158H494.937C494.813 264.158 494.713 264.259 494.713 264.383V265.308C494.713 265.432 494.813 265.533 494.937 265.533H496.778C496.902 265.533 497.002 265.432 497.002 265.308V264.383C497.002 264.259 496.902 264.158 496.778 264.158Z" fill="#3F3D56"/>
<path d="M492.199 264.158H490.358C490.234 264.158 490.134 264.259 490.134 264.383V265.308C490.134 265.432 490.234 265.533 490.358 265.533H492.199C492.323 265.533 492.423 265.432 492.423 265.308V264.383C492.423 264.259 492.323 264.158 492.199 264.158Z" fill="#3F3D56"/>
<path d="M538.902 266.906H521.036C520.912 266.906 520.812 267.007 520.812 267.131V268.056C520.812 268.18 520.912 268.281 521.036 268.281H538.902C539.026 268.281 539.126 268.18 539.126 268.056V267.131C539.126 267.007 539.026 266.906 538.902 266.906Z" fill="#3F3D56"/>
<path d="M470.34 156.239H587.239C587.36 156.239 587.477 156.19 587.563 156.104C587.648 156.018 587.697 155.902 587.697 155.78C587.697 155.659 587.648 155.542 587.563 155.456C587.477 155.371 587.36 155.322 587.239 155.322H470.34C470.218 155.322 470.102 155.371 470.016 155.456C469.93 155.542 469.882 155.659 469.882 155.78C469.882 155.902 469.93 156.018 470.016 156.104C470.102 156.19 470.218 156.239 470.34 156.239Z" fill="#3F3D56"/>
<path d="M579.291 152.909C580.795 152.909 582.015 151.662 582.015 150.123C582.015 148.585 580.795 147.338 579.291 147.338C577.786 147.338 576.566 148.585 576.566 150.123C576.566 151.662 577.786 152.909 579.291 152.909Z" fill="#3F3D56"/>
<path d="M569.877 152.909C571.381 152.909 572.601 151.662 572.601 150.123C572.601 148.585 571.381 147.338 569.877 147.338C568.372 147.338 567.152 148.585 567.152 150.123C567.152 151.662 568.372 152.909 569.877 152.909Z" fill="#3F3D56"/>
<path d="M560.463 152.909C561.967 152.909 563.187 151.662 563.187 150.123C563.187 148.585 561.967 147.338 560.463 147.338C558.958 147.338 557.738 148.585 557.738 150.123C557.738 151.662 558.958 152.909 560.463 152.909Z" fill="#3F3D56"/>
<path d="M475.519 148.534C475.518 148.6 475.53 148.665 475.555 148.726C475.58 148.787 475.617 148.843 475.663 148.89C475.71 148.937 475.765 148.974 475.826 148.999C475.886 149.025 475.952 149.038 476.018 149.038H482.703C482.828 149.026 482.945 148.967 483.03 148.874C483.115 148.78 483.163 148.658 483.163 148.532C483.163 148.405 483.115 148.283 483.03 148.189C482.945 148.096 482.828 148.037 482.703 148.025H476.018C475.952 148.026 475.886 148.04 475.825 148.065C475.764 148.091 475.709 148.129 475.663 148.176C475.617 148.223 475.58 148.279 475.555 148.341C475.53 148.402 475.518 148.468 475.519 148.534Z" fill="#3F3D56"/>
<path d="M475.519 150.434C475.518 150.5 475.53 150.566 475.555 150.627C475.58 150.688 475.617 150.743 475.663 150.79C475.71 150.837 475.765 150.874 475.826 150.9C475.886 150.925 475.952 150.938 476.018 150.938H482.703C482.828 150.926 482.945 150.868 483.03 150.774C483.115 150.68 483.163 150.559 483.163 150.432C483.163 150.305 483.115 150.184 483.03 150.09C482.945 149.996 482.828 149.938 482.703 149.926H476.018C475.952 149.926 475.886 149.94 475.825 149.966C475.764 149.992 475.709 150.029 475.663 150.077C475.617 150.124 475.58 150.18 475.555 150.241C475.53 150.302 475.518 150.368 475.519 150.434Z" fill="#3F3D56"/>
<path d="M475.519 152.332C475.518 152.398 475.53 152.464 475.555 152.525C475.58 152.587 475.617 152.643 475.663 152.69C475.709 152.737 475.764 152.775 475.825 152.8C475.886 152.826 475.952 152.84 476.018 152.841H482.703C482.828 152.829 482.945 152.77 483.03 152.676C483.115 152.583 483.163 152.461 483.163 152.334C483.163 152.208 483.115 152.086 483.03 151.992C482.945 151.899 482.828 151.84 482.703 151.828H476.018C475.952 151.828 475.886 151.841 475.826 151.867C475.765 151.892 475.71 151.929 475.663 151.976C475.617 152.023 475.58 152.078 475.555 152.14C475.53 152.201 475.518 152.266 475.519 152.332Z" fill="#3F3D56"/>
<path d="M475.175 167.023H477.574C477.924 167.023 478.26 167.162 478.507 167.41C478.754 167.657 478.893 167.993 478.893 168.343C478.893 168.693 478.754 169.028 478.507 169.276C478.26 169.523 477.924 169.662 477.574 169.662H475.175C474.825 169.662 474.49 169.523 474.243 169.276C473.995 169.028 473.856 168.693 473.856 168.343C473.856 167.993 473.995 167.657 474.243 167.41C474.49 167.162 474.825 167.023 475.175 167.023Z" fill="#E6E6E6"/>
<path d="M502.648 167.023H505.047C505.397 167.023 505.732 167.162 505.979 167.41C506.227 167.657 506.366 167.993 506.366 168.343C506.366 168.693 506.227 169.028 505.979 169.276C505.732 169.523 505.397 169.662 505.047 169.662H502.648C502.298 169.662 501.963 169.523 501.715 169.276C501.468 169.028 501.329 168.693 501.329 168.343C501.329 167.993 501.468 167.657 501.715 167.41C501.963 167.162 502.298 167.023 502.648 167.023Z" fill="#E6E6E6"/>
<path d="M510.432 167.023H512.831C513.181 167.023 513.516 167.162 513.764 167.41C514.011 167.657 514.15 167.993 514.15 168.343C514.15 168.693 514.011 169.028 513.764 169.276C513.516 169.523 513.181 169.662 512.831 169.662H510.432C510.082 169.662 509.747 169.523 509.5 169.276C509.252 169.028 509.113 168.693 509.113 168.343C509.113 167.993 509.252 167.657 509.5 167.41C509.747 167.162 510.082 167.023 510.432 167.023Z" fill="#E6E6E6"/>
<path d="M482.648 166.803H497.574C497.924 166.803 498.26 166.942 498.507 167.189C498.754 167.437 498.893 167.772 498.893 168.122C498.893 168.472 498.754 168.808 498.507 169.055C498.26 169.302 497.924 169.441 497.574 169.441H482.648C482.298 169.441 481.963 169.302 481.715 169.055C481.468 168.808 481.329 168.472 481.329 168.122C481.329 167.772 481.468 167.437 481.715 167.189C481.963 166.942 482.298 166.803 482.648 166.803Z" fill="#E6E6E6"/>
<path d="M519.278 166.803H534.204C534.554 166.803 534.889 166.942 535.137 167.189C535.384 167.437 535.523 167.772 535.523 168.122C535.523 168.472 535.384 168.808 535.137 169.055C534.889 169.302 534.554 169.441 534.204 169.441H519.278C518.928 169.441 518.593 169.302 518.345 169.055C518.098 168.808 517.959 168.472 517.959 168.122C517.959 167.772 518.098 167.437 518.345 167.189C518.593 166.942 518.928 166.803 519.278 166.803Z" fill="#E6E6E6"/>
<path d="M482.501 172.979H484.901C485.25 172.979 485.586 173.118 485.833 173.365C486.08 173.612 486.219 173.948 486.219 174.298C486.219 174.648 486.08 174.983 485.833 175.231C485.586 175.478 485.25 175.617 484.901 175.617H482.501C482.152 175.617 481.816 175.478 481.569 175.231C481.322 174.983 481.183 174.648 481.183 174.298C481.183 173.948 481.322 173.612 481.569 173.365C481.816 173.118 482.152 172.979 482.501 172.979Z" fill="#E6E6E6"/>
<path d="M509.973 172.979H512.372C512.722 172.979 513.057 173.118 513.305 173.365C513.552 173.612 513.691 173.948 513.691 174.298C513.691 174.648 513.552 174.983 513.305 175.231C513.057 175.478 512.722 175.617 512.372 175.617H509.973C509.623 175.617 509.288 175.478 509.041 175.231C508.793 174.983 508.654 174.648 508.654 174.298C508.654 173.948 508.793 173.612 509.041 173.365C509.288 173.118 509.623 172.979 509.973 172.979Z" fill="#E6E6E6"/>
<path d="M517.757 172.979H520.156C520.506 172.979 520.842 173.118 521.089 173.365C521.336 173.612 521.475 173.948 521.475 174.298C521.475 174.648 521.336 174.983 521.089 175.231C520.842 175.478 520.506 175.617 520.156 175.617H517.757C517.407 175.617 517.072 175.478 516.825 175.231C516.577 174.983 516.438 174.648 516.438 174.298C516.438 173.948 516.577 173.612 516.825 173.365C517.072 173.118 517.407 172.979 517.757 172.979Z" fill="#E6E6E6"/>
<path d="M489.974 172.758H504.901C505.25 172.758 505.586 172.897 505.833 173.144C506.08 173.392 506.219 173.727 506.219 174.077C506.219 174.427 506.08 174.763 505.833 175.01C505.586 175.258 505.25 175.397 504.901 175.397H489.974C489.624 175.397 489.289 175.258 489.042 175.01C488.794 174.763 488.655 174.427 488.655 174.077C488.655 173.727 488.794 173.392 489.042 173.144C489.289 172.897 489.624 172.758 489.974 172.758Z" fill="#E6E6E6"/>
<path d="M526.604 172.758H541.53C541.88 172.758 542.216 172.897 542.463 173.144C542.71 173.392 542.849 173.727 542.849 174.077C542.849 174.427 542.71 174.763 542.463 175.01C542.216 175.258 541.88 175.397 541.53 175.397H526.604C526.254 175.397 525.919 175.258 525.671 175.01C525.424 174.763 525.285 174.427 525.285 174.077C525.285 173.727 525.424 173.392 525.671 173.144C525.919 172.897 526.254 172.758 526.604 172.758Z" fill="#E6E6E6"/>
<path d="M489.827 178.934H492.227C492.576 178.934 492.912 179.073 493.159 179.32C493.406 179.567 493.545 179.903 493.545 180.253C493.545 180.603 493.406 180.938 493.159 181.186C492.912 181.433 492.576 181.572 492.227 181.572H489.827C489.478 181.572 489.142 181.433 488.895 181.186C488.648 180.938 488.509 180.603 488.509 180.253C488.509 179.903 488.648 179.567 488.895 179.32C489.142 179.073 489.478 178.934 489.827 178.934Z" fill="#E6E6E6"/>
<path d="M517.299 178.934H519.698C520.048 178.934 520.384 179.073 520.631 179.32C520.878 179.567 521.017 179.903 521.017 180.253C521.017 180.603 520.878 180.938 520.631 181.186C520.384 181.433 520.048 181.572 519.698 181.572H517.299C516.949 181.572 516.614 181.433 516.367 181.186C516.119 180.938 515.98 180.603 515.98 180.253C515.98 179.903 516.119 179.567 516.367 179.32C516.614 179.073 516.949 178.934 517.299 178.934Z" fill="#E6E6E6"/>
<path d="M525.083 178.934H527.483C527.832 178.934 528.168 179.073 528.415 179.32C528.662 179.567 528.801 179.903 528.801 180.253C528.801 180.603 528.662 180.938 528.415 181.186C528.168 181.433 527.832 181.572 527.483 181.572H525.083C524.734 181.572 524.398 181.433 524.151 181.186C523.904 180.938 523.765 180.603 523.765 180.253C523.765 179.903 523.904 179.567 524.151 179.32C524.398 179.073 524.734 178.934 525.083 178.934Z" fill="#E6E6E6"/>
<path d="M497.3 178.715H512.227C512.576 178.715 512.912 178.854 513.159 179.101C513.406 179.349 513.545 179.684 513.545 180.034C513.545 180.384 513.406 180.72 513.159 180.967C512.912 181.215 512.576 181.354 512.227 181.354H497.3C496.95 181.354 496.615 181.215 496.368 180.967C496.12 180.72 495.981 180.384 495.981 180.034C495.981 179.684 496.12 179.349 496.368 179.101C496.615 178.854 496.95 178.715 497.3 178.715Z" fill="#E6E6E6"/>
<path d="M533.93 178.715H548.857C549.206 178.715 549.542 178.854 549.789 179.101C550.036 179.349 550.175 179.684 550.175 180.034C550.175 180.384 550.036 180.72 549.789 180.967C549.542 181.215 549.206 181.354 548.857 181.354H533.93C533.58 181.354 533.245 181.215 532.998 180.967C532.75 180.72 532.611 180.384 532.611 180.034C532.611 179.684 532.75 179.349 532.998 179.101C533.245 178.854 533.58 178.715 533.93 178.715Z" fill="#E6E6E6"/>
<path d="M497.154 184.891H499.553C499.903 184.891 500.238 185.03 500.485 185.277C500.733 185.525 500.872 185.86 500.872 186.21C500.872 186.56 500.733 186.896 500.485 187.143C500.238 187.39 499.903 187.529 499.553 187.529H497.154C496.804 187.529 496.468 187.39 496.221 187.143C495.974 186.896 495.835 186.56 495.835 186.21C495.835 185.86 495.974 185.525 496.221 185.277C496.468 185.03 496.804 184.891 497.154 184.891Z" fill="#E6E6E6"/>
<path d="M524.625 184.891H527.025C527.374 184.891 527.71 185.03 527.957 185.277C528.204 185.525 528.343 185.86 528.343 186.21C528.343 186.56 528.204 186.896 527.957 187.143C527.71 187.39 527.374 187.529 527.025 187.529H524.625C524.276 187.529 523.94 187.39 523.693 187.143C523.446 186.896 523.307 186.56 523.307 186.21C523.307 185.86 523.446 185.525 523.693 185.277C523.94 185.03 524.276 184.891 524.625 184.891Z" fill="#E6E6E6"/>
<path d="M532.409 184.891H534.809C535.158 184.891 535.494 185.03 535.741 185.277C535.988 185.525 536.127 185.86 536.127 186.21C536.127 186.56 535.988 186.896 535.741 187.143C535.494 187.39 535.158 187.529 534.809 187.529H532.409C532.06 187.529 531.724 187.39 531.477 187.143C531.23 186.896 531.091 186.56 531.091 186.21C531.091 185.86 531.23 185.525 531.477 185.277C531.724 185.03 532.06 184.891 532.409 184.891Z" fill="#E6E6E6"/>
<path d="M504.625 184.67H519.552C519.902 184.67 520.237 184.809 520.484 185.056C520.732 185.304 520.871 185.639 520.871 185.989C520.871 186.339 520.732 186.675 520.484 186.922C520.237 187.17 519.902 187.309 519.552 187.309H504.625C504.276 187.309 503.94 187.17 503.693 186.922C503.446 186.675 503.307 186.339 503.307 185.989C503.307 185.639 503.446 185.304 503.693 185.056C503.94 184.809 504.276 184.67 504.625 184.67Z" fill="#E6E6E6"/>
<path d="M502.648 208.574H505.047C505.397 208.574 505.732 208.713 505.979 208.961C506.227 209.208 506.366 209.544 506.366 209.894C506.366 210.244 506.227 210.579 505.979 210.827C505.732 211.074 505.397 211.213 505.047 211.213H502.648C502.298 211.213 501.963 211.074 501.715 210.827C501.468 210.579 501.329 210.244 501.329 209.894C501.329 209.544 501.468 209.208 501.715 208.961C501.963 208.713 502.298 208.574 502.648 208.574Z" fill="#E6E6E6"/>
<path d="M510.432 208.574H512.831C513.181 208.574 513.516 208.713 513.764 208.961C514.011 209.208 514.15 209.544 514.15 209.894C514.15 210.244 514.011 210.579 513.764 210.827C513.516 211.074 513.181 211.213 512.831 211.213H510.432C510.082 211.213 509.747 211.074 509.5 210.827C509.252 210.579 509.113 210.244 509.113 209.894C509.113 209.544 509.252 209.208 509.5 208.961C509.747 208.713 510.082 208.574 510.432 208.574Z" fill="#E6E6E6"/>
<path d="M519.278 208.795H534.204C534.554 208.795 534.889 208.934 535.137 209.181C535.384 209.429 535.523 209.764 535.523 210.114C535.523 210.464 535.384 210.8 535.137 211.047C534.889 211.295 534.554 211.434 534.204 211.434H519.278C518.928 211.434 518.593 211.295 518.345 211.047C518.098 210.8 517.959 210.464 517.959 210.114C517.959 209.764 518.098 209.429 518.345 209.181C518.593 208.934 518.928 208.795 519.278 208.795Z" fill="#E6E6E6"/>
<path d="M475.175 208.574H477.574C477.924 208.574 478.26 208.713 478.507 208.961C478.754 209.208 478.893 209.544 478.893 209.894C478.893 210.244 478.754 210.579 478.507 210.827C478.26 211.074 477.924 211.213 477.574 211.213H475.175C474.825 211.213 474.49 211.074 474.243 210.827C473.995 210.579 473.856 210.244 473.856 209.894C473.856 209.544 473.995 209.208 474.243 208.961C474.49 208.713 474.825 208.574 475.175 208.574Z" fill="#E6E6E6"/>
<path d="M482.648 208.795H497.574C497.924 208.795 498.26 208.934 498.507 209.181C498.754 209.429 498.893 209.764 498.893 210.114C498.893 210.464 498.754 210.8 498.507 211.047C498.26 211.295 497.924 211.434 497.574 211.434H482.648C482.298 211.434 481.963 211.295 481.715 211.047C481.468 210.8 481.329 210.464 481.329 210.114C481.329 209.764 481.468 209.429 481.715 209.181C481.963 208.934 482.298 208.795 482.648 208.795Z" fill="#E6E6E6"/>
<path d="M482.501 202.619H484.901C485.25 202.619 485.586 202.758 485.833 203.006C486.08 203.253 486.219 203.589 486.219 203.939C486.219 204.288 486.08 204.624 485.833 204.872C485.586 205.119 485.25 205.258 484.901 205.258H482.501C482.152 205.258 481.816 205.119 481.569 204.872C481.322 204.624 481.183 204.288 481.183 203.939C481.183 203.589 481.322 203.253 481.569 203.006C481.816 202.758 482.152 202.619 482.501 202.619Z" fill="#E6E6E6"/>
<path d="M509.973 202.619H512.372C512.722 202.619 513.057 202.758 513.305 203.006C513.552 203.253 513.691 203.589 513.691 203.939C513.691 204.288 513.552 204.624 513.305 204.872C513.057 205.119 512.722 205.258 512.372 205.258H509.973C509.623 205.258 509.288 205.119 509.041 204.872C508.793 204.624 508.654 204.288 508.654 203.939C508.654 203.589 508.793 203.253 509.041 203.006C509.288 202.758 509.623 202.619 509.973 202.619Z" fill="#E6E6E6"/>
<path d="M517.757 202.619H520.156C520.506 202.619 520.842 202.758 521.089 203.006C521.336 203.253 521.475 203.589 521.475 203.939C521.475 204.288 521.336 204.624 521.089 204.872C520.842 205.119 520.506 205.258 520.156 205.258H517.757C517.407 205.258 517.072 205.119 516.825 204.872C516.577 204.624 516.438 204.288 516.438 203.939C516.438 203.589 516.577 203.253 516.825 203.006C517.072 202.758 517.407 202.619 517.757 202.619Z" fill="#E6E6E6"/>
<path d="M489.974 202.838H504.901C505.25 202.838 505.586 202.977 505.833 203.224C506.08 203.472 506.219 203.807 506.219 204.157C506.219 204.507 506.08 204.843 505.833 205.09C505.586 205.338 505.25 205.477 504.901 205.477H489.974C489.624 205.477 489.289 205.338 489.042 205.09C488.794 204.843 488.655 204.507 488.655 204.157C488.655 203.807 488.794 203.472 489.042 203.224C489.289 202.977 489.624 202.838 489.974 202.838Z" fill="#E6E6E6"/>
<path d="M489.827 196.664H492.227C492.576 196.664 492.912 196.803 493.159 197.05C493.406 197.298 493.545 197.634 493.545 197.983C493.545 198.333 493.406 198.669 493.159 198.916C492.912 199.164 492.576 199.303 492.227 199.303H489.827C489.478 199.303 489.142 199.164 488.895 198.916C488.648 198.669 488.509 198.333 488.509 197.983C488.509 197.634 488.648 197.298 488.895 197.05C489.142 196.803 489.478 196.664 489.827 196.664Z" fill="#E6E6E6"/>
<path d="M517.299 196.664H519.698C520.048 196.664 520.384 196.803 520.631 197.05C520.878 197.298 521.017 197.634 521.017 197.983C521.017 198.333 520.878 198.669 520.631 198.916C520.384 199.164 520.048 199.303 519.698 199.303H517.299C516.949 199.303 516.614 199.164 516.367 198.916C516.119 198.669 515.98 198.333 515.98 197.983C515.98 197.634 516.119 197.298 516.367 197.05C516.614 196.803 516.949 196.664 517.299 196.664Z" fill="#E6E6E6"/>
<path d="M525.083 196.664H527.483C527.832 196.664 528.168 196.803 528.415 197.05C528.662 197.298 528.801 197.634 528.801 197.983C528.801 198.333 528.662 198.669 528.415 198.916C528.168 199.164 527.832 199.303 527.483 199.303H525.083C524.734 199.303 524.398 199.164 524.151 198.916C523.904 198.669 523.765 198.333 523.765 197.983C523.765 197.634 523.904 197.298 524.151 197.05C524.398 196.803 524.734 196.664 525.083 196.664Z" fill="#E6E6E6"/>
<path d="M497.3 196.883H512.227C512.576 196.883 512.912 197.022 513.159 197.269C513.406 197.517 513.545 197.852 513.545 198.202C513.545 198.552 513.406 198.888 513.159 199.135C512.912 199.383 512.576 199.522 512.227 199.522H497.3C496.95 199.522 496.615 199.383 496.368 199.135C496.12 198.888 495.981 198.552 495.981 198.202C495.981 197.852 496.12 197.517 496.368 197.269C496.615 197.022 496.95 196.883 497.3 196.883Z" fill="#E6E6E6"/>
<path d="M497.154 190.709H499.553C499.903 190.709 500.238 190.848 500.485 191.095C500.733 191.343 500.872 191.678 500.872 192.028C500.872 192.378 500.733 192.714 500.485 192.961C500.238 193.209 499.903 193.348 499.553 193.348H497.154C496.804 193.348 496.468 193.209 496.221 192.961C495.974 192.714 495.835 192.378 495.835 192.028C495.835 191.678 495.974 191.343 496.221 191.095C496.468 190.848 496.804 190.709 497.154 190.709Z" fill="#E6E6E6"/>
<path d="M524.625 190.709H527.025C527.374 190.709 527.71 190.848 527.957 191.095C528.204 191.343 528.343 191.678 528.343 192.028C528.343 192.378 528.204 192.714 527.957 192.961C527.71 193.209 527.374 193.348 527.025 193.348H524.625C524.276 193.348 523.94 193.209 523.693 192.961C523.446 192.714 523.307 192.378 523.307 192.028C523.307 191.678 523.446 191.343 523.693 191.095C523.94 190.848 524.276 190.709 524.625 190.709Z" fill="#E6E6E6"/>
<path d="M532.409 190.709H534.809C535.158 190.709 535.494 190.848 535.741 191.095C535.988 191.343 536.127 191.678 536.127 192.028C536.127 192.378 535.988 192.714 535.741 192.961C535.494 193.209 535.158 193.348 534.809 193.348H532.409C532.06 193.348 531.724 193.209 531.477 192.961C531.23 192.714 531.091 192.378 531.091 192.028C531.091 191.678 531.23 191.343 531.477 191.095C531.724 190.848 532.06 190.709 532.409 190.709Z" fill="#E6E6E6"/>
<path d="M504.625 190.928H519.552C519.902 190.928 520.237 191.067 520.484 191.314C520.732 191.562 520.871 191.897 520.871 192.247C520.871 192.597 520.732 192.933 520.484 193.18C520.237 193.427 519.902 193.566 519.552 193.566H504.625C504.276 193.566 503.94 193.427 503.693 193.18C503.446 192.933 503.307 192.597 503.307 192.247C503.307 191.897 503.446 191.562 503.693 191.314C503.94 191.067 504.276 190.928 504.625 190.928Z" fill="#E6E6E6"/>
<path d="M489.214 294.133L488.912 294.28C488.277 294.585 487.636 294.891 486.989 295.196C485.057 296.112 483.1 296.987 481.119 297.821C475.902 299.999 470.549 301.835 465.093 303.318C464.178 297.606 463.289 284.132 462.438 274.223C462.277 272.359 462.117 270.622 461.98 269.088C461.829 267.073 461.54 265.071 461.114 263.096C461.074 262.936 461.014 262.782 460.936 262.637C461.023 263.43 461.114 265.794 461.201 269.074C461.247 270.609 461.288 272.345 461.334 274.21C461.549 283.748 461.792 296.726 461.998 304.116C461.362 304.271 460.721 304.427 460.08 304.574C459.677 304.67 459.269 304.761 458.862 304.849C458.367 304.958 457.873 305.068 457.378 305.169L455.826 305.485C447.371 307.148 438.774 307.983 430.158 307.977H428.445H427.919L426.362 307.945C416.179 307.665 406.063 306.206 396.216 303.598L396.614 274.228L396.683 269.092L396.71 267.145C396.485 267.772 396.35 268.428 396.307 269.092C396.147 270.343 395.982 272.116 395.817 274.228C395.19 282.364 394.545 295.489 393.876 302.956C385.959 300.703 380.172 298.646 372.938 295.026L372.086 294.591C372.136 294.238 372.191 293.886 372.242 293.524C373.061 287.825 372.095 280.408 373.002 274.214C373.693 269.436 374.407 264.846 375.126 260.952C375.996 256.265 376.88 252.582 377.754 250.791C378.762 248.724 379.769 246.69 380.744 244.743C381.166 243.905 381.582 243.085 381.985 242.274L382.64 240.987C383.62 239.067 384.545 237.294 385.387 235.723C385.982 234.619 386.532 233.62 387.035 232.745C387.626 231.714 388.148 230.862 388.578 230.216C391.758 225.396 396.488 221.806 401.985 220.042L402.122 220.005L402.255 220.06L402.406 220.129L411.133 216.922L415.034 207.549L435.048 206.316L438.28 208.776L439.933 210.036L441.696 211.379L444.938 213.848L445.854 214.132L447.227 214.553L456.591 217.43L456.687 217.389L456.824 217.426C461.826 219.029 466.205 222.151 469.352 226.359C469.663 226.762 469.951 227.179 470.231 227.601C470.991 228.728 472.016 230.51 473.225 232.745C473.724 233.661 474.251 234.665 474.805 235.723C475.139 236.36 478.01 245.344 480.83 254.565C483.454 263.178 486.009 271.974 486.325 274.214C486.384 274.631 486.448 275.052 486.508 275.469C486.888 278.076 487.264 280.701 487.625 283.257C488.161 287.055 488.683 290.72 489.182 293.996L489.214 294.133Z" fill="#3F3D56"/>
<path opacity="0.2" d="M468.006 260.952L464.114 245.926L460.68 258.891L468.006 260.952Z" fill="black"/>
<path d="M336.248 260.778C336.449 261.365 336.831 261.873 337.339 262.229C337.846 262.585 338.453 262.772 339.073 262.762L351.202 262.445C351.829 262.434 352.435 262.221 352.93 261.837C353.425 261.453 353.783 260.919 353.95 260.315L355.662 241.949C356.271 242.225 356.935 242.361 357.603 242.348C358.776 242.319 359.89 241.826 360.699 240.975C361.509 240.125 361.947 238.988 361.919 237.815C361.89 236.641 361.397 235.527 360.547 234.717C359.698 233.907 358.561 233.468 357.388 233.497C357.12 233.496 356.853 233.525 356.591 233.584C356.308 233.275 355.963 233.03 355.579 232.863C355.195 232.697 354.78 232.613 354.362 232.617L335.703 233.075C335.549 233.084 335.396 233.104 335.245 233.135C334.486 233.277 333.815 233.715 333.378 234.353C332.941 234.99 332.774 235.774 332.915 236.534C332.939 236.665 332.972 236.794 333.016 236.919L336.248 260.778ZM356.015 240.703L357.237 236.328C357.372 235.821 357.372 235.287 357.237 234.78C357.297 234.78 357.347 234.752 357.406 234.752C358.246 234.732 359.058 235.046 359.666 235.626C360.273 236.205 360.626 237.003 360.646 237.842C360.666 238.682 360.352 239.495 359.773 240.103C359.193 240.711 358.397 241.063 357.558 241.083C357.015 241.099 356.479 240.968 356.005 240.703H356.015Z" fill="#2F2E41"/>
<path d="M688.497 294.591L687.655 295.012C680.42 298.631 674.633 300.688 666.716 302.942C666.048 295.475 665.402 282.35 664.775 274.213C664.61 272.102 664.445 270.329 664.285 269.078C664.243 268.413 664.107 267.758 663.882 267.131L663.91 269.078L663.978 274.213L664.377 303.583C654.529 306.189 644.413 307.648 634.23 307.931L632.674 307.963H632.147H630.435C619.704 307.973 609.012 306.676 598.594 304.101C598.819 296.712 599.052 283.733 599.258 274.195C599.304 272.331 599.345 270.594 599.391 269.06C599.478 265.779 599.57 263.416 599.657 262.623C599.578 262.768 599.518 262.922 599.478 263.081C599.052 265.056 598.763 267.058 598.613 269.073C598.452 270.608 598.292 272.344 598.132 274.209C597.28 284.118 596.392 297.573 595.476 303.304C590.021 301.821 584.668 299.984 579.451 297.807C576.703 296.661 574.005 295.426 571.355 294.1C571.859 290.802 572.386 287.105 572.926 283.27C573.347 280.297 573.782 277.242 574.226 274.223C574.913 269.559 598.246 219.198 603.745 217.416L603.883 217.379L603.979 217.42L613.338 214.571L614.711 214.149L615.627 213.865L618.869 211.396L620.632 210.054L622.285 208.794L625.517 206.334L645.549 207.548L649.445 216.935L658.172 220.142L658.324 220.073L658.456 220.018L658.594 220.055C664.091 221.818 668.821 225.408 672 230.229C672.431 230.875 672.953 231.728 673.543 232.758C674.047 233.633 674.596 234.632 675.192 235.736C676.039 237.307 676.964 239.08 677.939 241L678.594 242.287C679.003 243.093 679.416 243.917 679.834 244.756C680.81 246.703 681.817 248.737 682.824 250.804C683.699 252.595 684.583 256.278 685.452 260.965C686.171 264.859 686.886 269.449 687.577 274.227C688.493 280.421 687.517 287.838 688.337 293.537C688.392 293.903 688.429 294.256 688.497 294.591Z" fill="#3F3D56"/>
<path d="M629.799 202.966C642.655 202.966 653.077 192.539 653.077 179.676C653.077 166.812 642.655 156.385 629.799 156.385C616.943 156.385 606.521 166.812 606.521 179.676C606.521 192.539 616.943 202.966 629.799 202.966Z" fill="#FFB6B6"/>
<path opacity="0.2" d="M592.578 260.952L596.47 245.926L599.904 258.891L592.578 260.952Z" fill="black"/>
<path d="M696.107 251.16C694.734 270.346 696.158 278.794 688.475 294.613C681.484 298.036 674.203 300.829 666.717 302.96C665.938 303.18 665.158 303.394 664.377 303.601C654.529 306.209 644.413 307.668 634.231 307.949L632.674 307.981H632.147H630.435C619.704 307.99 609.012 306.694 598.595 304.119C597.551 303.862 596.511 303.592 595.476 303.308C590.021 301.825 584.668 299.988 579.451 297.811C576.704 296.665 574.005 295.43 571.356 294.104C570.756 293.802 570.156 293.5 569.566 293.188C566.544 287.851 564.804 281.355 564.804 273.549C566.882 260.098 691.465 239.561 696.107 251.16Z" fill="#2F2E41"/>
<path opacity="0.2" d="M696.103 254.447C696.176 253.26 696.254 252.032 696.345 250.754C691.702 239.159 567.12 259.692 565.019 273.143C565.019 274.364 565.067 275.564 565.165 276.743C570.257 263.467 688.612 243.947 696.103 254.447Z" fill="black"/>
<path d="M561.681 252.068L571.91 246.947L563.385 223.931L561.141 212.322C560.851 210.813 560.169 209.407 559.165 208.244C558.161 207.081 556.869 206.203 555.418 205.696C553.968 205.19 552.41 205.074 550.901 205.36C549.392 205.646 547.984 206.323 546.819 207.324C545.094 208.805 544.011 210.897 543.798 213.161C543.586 215.425 544.26 217.683 545.679 219.46L554.012 229.886L561.681 252.068Z" fill="#FFB6B6"/>
<path d="M571.91 242.686L558.274 249.507L568.622 281.946C569.366 284.275 570.698 286.373 572.489 288.036C574.28 289.699 576.47 290.871 578.847 291.439C581.778 292.135 584.856 291.881 587.633 290.711C590.41 289.541 592.744 287.518 594.295 284.933L621.731 237.88C623.678 234.637 624.28 230.761 623.408 227.079C622.536 223.398 620.26 220.204 617.065 218.181C613.821 216.127 609.894 215.446 606.148 216.288C602.402 217.13 599.143 219.425 597.088 222.67C596.808 223.114 596.553 223.573 596.324 224.045L579.579 259.75L571.91 242.686Z" fill="#3F3D56"/>
<path d="M424.929 201.36C439.075 201.36 450.542 189.886 450.542 175.733C450.542 161.579 439.075 150.105 424.929 150.105C410.783 150.105 399.315 161.579 399.315 175.733C399.315 189.886 410.783 201.36 424.929 201.36Z" fill="#A0616A"/>
<path d="M399.622 158.07C401.705 155.262 404.7 153.265 406.989 150.621C408.244 149.174 409.278 147.529 410.698 146.233C413.326 143.823 416.993 142.833 420.551 142.71C424.452 142.608 428.323 143.425 431.849 145.096C435.376 146.768 438.461 149.246 440.853 152.33L446.435 149.055L448.642 154.864C449.245 154.339 450.015 154.045 450.814 154.034C451.613 154.023 452.391 154.296 453.008 154.803C453.626 155.311 454.044 156.021 454.189 156.808C454.333 157.595 454.194 158.407 453.797 159.101C454.255 157.727 456.27 157.438 457.387 158.345C458.504 159.252 458.806 160.86 458.623 162.285C458.399 163.858 457.707 165.328 456.637 166.502C455.568 167.677 454.17 168.503 452.625 168.873C450.194 169.413 447.369 168.845 445.423 170.398C443.866 171.644 443.394 173.912 441.806 175.117C439.846 176.601 437.076 175.914 434.64 176.244C430.377 176.817 427.003 181.178 427.515 185.452C427.131 184.105 426.723 182.703 425.849 181.622C424.974 180.541 423.5 179.79 422.158 180.188C419.938 180.853 419.576 183.881 420.116 186.144C421.558 192.113 426.984 201.775 426.984 201.775C419.965 204.547 411.604 201.926 406.188 196.671C400.771 191.417 397.946 183.972 396.724 176.514C395.666 170.211 395.812 163.215 399.622 158.07Z" fill="#2F2E41"/>
<path d="M658.97 192.514C663.842 181.335 661.081 171.051 655.142 165.595C652.807 160.358 649.702 156.318 646.149 155.369C644.432 154.265 642.766 152.969 640.916 152.309C640.054 151.987 639.136 151.842 638.217 151.884C637.298 151.926 636.397 152.153 635.568 152.552L634.625 152.3C633.824 150.252 632.885 150.211 631.841 151.558C627.821 149.684 624.199 148.846 620.976 148.846C610.445 148.846 604.245 157.752 602.597 168.517L611.383 170.858L614.437 165.988L613.027 171.298L617.876 172.585C625.257 182.206 616.424 204.383 605.229 216.725C607.894 215.989 610.548 215.366 613.192 214.856L622.807 200.764L616.855 213.592C619.945 213.133 623.888 213.592 628.196 214.448C629.648 212.552 630.412 210.023 629.661 207.769C630.885 210.145 631.728 212.699 632.161 215.337C641.255 217.559 653.659 218.7 660.343 219.543C665.746 217.779 665.76 197.855 658.97 192.514Z" fill="#2F2E41"/>
<path d="M662.143 154.494C665.71 162.488 658.508 165.947 651.91 165.832C645.957 165.745 640.884 161.553 640.582 155.598C640.508 154.181 640.715 152.764 641.189 151.427C641.664 150.09 642.397 148.86 643.347 147.807C644.297 146.754 645.445 145.898 646.726 145.29C648.007 144.681 649.395 144.331 650.811 144.259C656.763 143.952 659.712 149.047 662.143 154.494Z" fill="#2F2E41"/>
<path d="M496.581 284.653L490.702 274.841L510.249 260.007L518.376 251.417C519.432 250.302 520.763 249.484 522.234 249.045C523.706 248.605 525.266 248.56 526.761 248.912C528.255 249.265 529.631 250.004 530.751 251.055C531.871 252.107 532.695 253.433 533.142 254.903C533.803 257.081 533.593 259.43 532.556 261.456C531.519 263.482 529.736 265.025 527.584 265.761L514.951 270.076L496.581 284.653Z" fill="#A0616A"/>
<path d="M500.821 284.33L491.663 291.962L489.195 294.019L488.907 294.257C488.272 294.563 487.631 294.868 486.984 295.174C485.052 296.09 483.095 296.965 481.114 297.799C475.897 299.976 470.544 301.813 465.088 303.296C464.054 303.58 463.014 303.85 461.97 304.107C461.334 304.263 460.693 304.418 460.052 304.565C459.649 304.661 459.241 304.753 458.834 304.84C458.339 304.95 457.845 305.06 457.35 305.161L455.798 305.477C454.407 304.151 453.299 302.556 452.542 300.789C451.785 299.022 451.394 297.119 451.394 295.196C451.394 295.073 451.394 294.944 451.394 294.816L452.863 257.099L453.541 240.415C453.646 236.638 455.221 233.052 457.931 230.422C460.641 227.791 464.271 226.323 468.046 226.332C468.504 226.332 468.921 226.355 469.351 226.396C469.663 226.799 469.951 227.216 470.23 227.638C470.99 228.765 472.016 230.547 473.225 232.782C473.724 233.699 474.25 234.702 474.805 235.76C475.139 236.397 478.01 245.381 480.83 254.603L479.594 264.223L477.35 281.508L486.508 275.488L492.964 271.246L493.728 272.524L495.72 275.85L499.566 282.264L500.821 284.33Z" fill="#3F3D56"/>
<path d="M495.803 273.55C495.803 274.329 495.78 275.094 495.739 275.841C495.644 277.926 495.403 280.002 495.015 282.053C494.384 285.498 493.257 288.833 491.668 291.953C491.458 292.37 491.233 292.782 491.004 293.185C490.414 293.497 489.814 293.799 489.214 294.102L488.912 294.248C486.36 295.516 483.765 296.702 481.128 297.808C475.911 299.985 470.558 301.822 465.103 303.305C464.068 303.589 463.028 303.86 461.985 304.116C459.945 304.62 457.888 305.078 455.812 305.49C447.358 307.153 438.761 307.988 430.144 307.983H428.432H427.905L426.348 307.951C416.166 307.67 406.05 306.211 396.202 303.603C395.419 303.397 394.641 303.186 393.862 302.962C386.377 300.831 379.095 298.037 372.104 294.615C364.421 278.796 365.864 270.334 364.472 251.162C367.329 244.02 415.666 249.064 452.882 257.118C462.983 259.308 472.259 261.699 479.59 264.177C487.163 266.711 492.653 269.285 494.805 271.704C495.31 272.209 495.657 272.851 495.803 273.55Z" fill="#2F2E41"/>
<path opacity="0.2" d="M364.481 254.447C364.408 253.26 364.33 252.032 364.238 250.754C368.881 239.159 493.463 259.692 495.565 273.143C495.565 274.364 495.516 275.564 495.418 276.743C490.327 263.467 371.972 243.947 364.481 254.447Z" fill="black"/>
</g>
<rect x="26" y="51" width="328" height="54" rx="12" fill="white"/>
<path d="M50.16 162.88C49.292 162.88 49.152 162.74 49.152 161.816V155.012H56.488V151.792H45.708V147.256H54.304V144.064H45.708V140.284H42.32V144.064H38.708C39.016 143.112 39.296 142.216 39.548 141.348L36.132 140.676C35.544 143.532 34.228 147.312 32.408 149.608C33.192 149.916 34.592 150.588 35.348 151.064C36.132 150.028 36.86 148.684 37.504 147.256H42.32V151.792H31.596V155.012H38.204C37.784 158.708 36.72 161.844 31.148 163.664C31.904 164.364 32.828 165.708 33.22 166.604C39.66 164.168 41.088 159.996 41.704 155.012H45.792V161.816C45.792 164.98 46.52 166.016 49.656 166.016H52.904C55.508 166.016 56.404 164.812 56.74 160.388C55.844 160.164 54.388 159.604 53.716 159.044C53.604 162.348 53.436 162.88 52.596 162.88H50.16ZM74.744 159.492V158.568H79.616V159.492H74.744ZM74.744 156.132H79.616V157.028H74.744V156.132ZM88.016 156.132V157.028H82.892V156.132H88.016ZM88.016 159.492H82.892V158.568H88.016V159.492ZM93.588 161.984H82.892V161.088H91.264V154.508H82.892V153.696H92.692V151.596H82.892V150.98H85.692V149.132H93.56V147.256H85.692V146.36H92.552V144.54H85.692V143.644H93.028V141.768H85.692V140.312H82.64V150.084H79.616V151.596H76.564C79.056 150.364 79.952 148.544 79.952 146.416V140.284H76.956V141.768H69.676V143.644H76.956V144.54H70.32V146.36H76.956V146.388C76.956 146.64 76.956 146.864 76.928 147.088C73.904 147.256 70.992 147.368 68.836 147.452L69.032 149.384C71.02 149.272 73.512 149.132 76.06 148.936C75.36 149.608 74.1 150.084 71.916 150.308C72.224 150.616 72.616 151.12 72.98 151.596H69.984V153.696H79.616V154.508H71.608V161.088H79.616V161.984H68.892V164.168H79.616V166.408H82.892V164.168H93.588V161.984ZM118.088 141.544L114.392 141.236C114.336 142.244 114.14 143.336 113.832 144.456C113.384 144.456 112.908 144.456 112.488 144.456C111.06 144.456 108.988 144.344 107.56 144.12V147.396C109.1 147.508 111.144 147.564 112.292 147.564C112.404 147.564 112.516 147.564 112.656 147.564C111.396 150.084 109.408 152.576 106.468 155.292L109.464 157.532C110.416 156.3 111.228 155.292 112.068 154.452C113.132 153.416 114.868 152.52 116.436 152.52C117.22 152.52 117.976 152.772 118.396 153.472C115.204 155.124 111.844 157.364 111.844 160.948C111.844 164.56 115.092 165.624 119.488 165.624C122.12 165.624 125.564 165.4 127.412 165.148L127.524 161.536C125.06 162.012 121.952 162.32 119.572 162.32C116.828 162.32 115.512 161.9 115.512 160.36C115.512 158.96 116.632 157.868 118.732 156.664C118.704 157.896 118.676 159.24 118.592 160.08H121.952C121.924 158.792 121.868 156.72 121.84 155.152C123.548 154.368 125.144 153.752 126.404 153.248C127.356 152.884 128.84 152.324 129.736 152.072L128.336 148.824C127.3 149.356 126.32 149.804 125.228 150.28C124.08 150.784 122.904 151.26 121.448 151.932C120.832 150.504 119.432 149.776 117.724 149.776C116.8 149.776 115.288 150 114.56 150.336C115.12 149.524 115.68 148.516 116.156 147.48C119.18 147.396 122.624 147.172 125.284 146.78L125.312 143.532C122.848 143.952 120.048 144.204 117.388 144.344C117.752 143.168 117.948 142.244 118.088 141.544ZM149.868 152.94H161.572V154.676H149.868V152.94ZM149.868 148.488H161.572V150.224H149.868V148.488ZM149.868 144.064H161.572V145.8H149.868V144.064ZM161.628 163.048C160.564 163.048 160.396 162.936 160.396 162.04V157.588H164.96V141.152H146.648V157.588H150.064C149.588 160.64 148.384 162.516 142.644 163.58C143.288 164.28 144.184 165.652 144.492 166.548C151.408 164.98 153.06 162.04 153.648 157.588H157.036V162.068C157.036 165.204 157.82 166.212 161.152 166.212H164.848C167.62 166.212 168.488 165.064 168.852 160.64C167.984 160.416 166.5 159.856 165.8 159.324C165.66 162.572 165.492 163.048 164.54 163.048H161.628ZM180.472 148.656L182.068 152.576C184.98 151.316 191.616 148.516 195.732 148.516C199.092 148.516 200.912 150.532 200.912 153.164C200.912 158.036 194.976 160.22 187.388 160.416L189.012 164.14C198.868 163.636 204.916 159.576 204.916 153.22C204.916 148.04 200.94 145.128 195.872 145.128C191.784 145.128 186.072 147.144 183.916 147.816C182.908 148.096 181.508 148.488 180.472 148.656ZM237.984 141.74H233.924C234.036 142.188 234.176 142.972 234.232 143.672C234.288 144.428 234.316 145.884 234.344 147.452C233.28 147.48 232.188 147.508 231.18 147.508C229.696 147.508 228.324 147.396 226.952 147.2V150.756C228.324 150.812 230.06 150.896 231.264 150.896C232.3 150.896 233.336 150.868 234.4 150.84C234.4 151.232 234.4 151.568 234.4 151.848C234.4 156.58 233.952 159.072 231.796 161.312C231.012 162.18 229.612 163.076 228.548 163.552L231.768 166.1C237.368 162.544 237.872 158.484 237.872 151.876C237.872 151.596 237.872 151.176 237.872 150.7C239.44 150.616 240.896 150.504 242.016 150.364L242.044 146.724C240.896 146.948 239.412 147.116 237.844 147.228C237.844 145.688 237.844 144.232 237.844 143.644C237.872 143.028 237.9 142.356 237.984 141.74ZM224.068 142.216L219.924 141.796C219.896 142.496 219.868 143.448 219.728 144.232C219.392 146.5 218.832 150.812 218.832 155.404C218.832 158.876 219.812 162.796 220.428 164.476L223.536 164.168C223.508 163.776 223.48 163.3 223.48 163.02C223.48 162.684 223.536 162.068 223.648 161.648C223.984 160.052 224.74 157.224 225.552 154.816L223.816 153.696C223.34 154.732 222.836 156.076 222.472 156.944C221.716 153.472 222.696 147.592 223.396 144.484C223.536 143.896 223.816 142.888 224.068 142.216ZM255.428 144.736L255.792 148.572C259.04 147.872 264.752 147.256 267.384 146.976C265.508 148.404 263.24 151.596 263.24 155.628C263.24 161.676 268.784 164.84 274.636 165.232L275.952 161.396C271.22 161.144 266.908 159.464 266.908 154.872C266.908 151.54 269.428 147.9 272.816 147.004C274.3 146.668 276.708 146.668 278.22 146.64L278.192 143.056C276.232 143.112 273.152 143.308 270.268 143.532C265.144 143.98 260.524 144.4 258.2 144.596C257.64 144.652 256.548 144.708 255.428 144.736ZM38.54 197.16H42.04V194.024H38.54V188.284H35.348V194.024H31.344V197.16H34.956C34.06 200.492 32.436 204.3 30.616 206.512C31.148 207.352 31.876 208.696 32.184 209.648C33.388 208.108 34.452 205.812 35.348 203.348V214.408H38.54V202.76C39.324 204.02 40.136 205.336 40.556 206.232L42.46 203.516C41.9 202.816 39.52 199.932 38.54 198.868V197.16ZM46.212 209.564V205.98H52.792V209.564H46.212ZM52.792 199.4V202.956H46.212V199.4H52.792ZM52.792 192.932V196.404H46.212V192.932H52.792ZM43.02 189.796V214.184H46.212V212.588H52.792V214.016H56.152V189.796H43.02ZM90.816 189.768C90.396 191.14 89.528 193.1 88.8 194.332L91.264 195.284C92.048 194.108 93.056 192.4 93.98 190.776L90.816 189.768ZM94.232 198.756C92.72 197.496 89.892 195.76 87.596 194.416C88.044 192.652 88.212 190.636 88.296 188.312H85.076C84.852 193.856 84.404 197.048 78.58 198.868C79.28 199.456 80.092 200.688 80.428 201.5C83.452 200.464 85.272 199.064 86.42 197.216C88.548 198.56 90.844 200.156 92.02 201.276L94.232 198.756ZM80.932 208.332C82.304 206.988 83.172 204.776 83.536 202.62L80.624 202.032C80.26 203.936 79.42 205.896 78.188 206.96L80.932 208.332ZM80.96 189.936C80.652 191.672 79.896 193.548 78.86 194.556L81.464 195.676C82.668 194.416 83.396 192.344 83.676 190.496L80.96 189.936ZM77.796 189.152H69.564V191.672H77.796V189.152ZM78.804 192.904H68.164V195.536H78.804V192.904ZM77.88 196.796H69.48V199.344H77.88V196.796ZM69.48 203.124H77.88V200.632H69.48V203.124ZM75.08 207.128V210.348H72.196V207.128H75.08ZM77.908 204.496H69.396V214.044H72.196V212.952H77.908V204.496ZM91.292 207.66C92.16 206.456 93.252 204.608 94.232 202.844L90.956 201.836C90.452 203.32 89.528 205.336 88.744 206.68C88.352 205.784 88.212 204.944 88.212 204.328V200.1H84.824V204.328C84.824 206.204 83.396 209.872 78.048 211.748C78.636 212.42 79.532 213.708 79.868 214.464C83.732 213.064 85.972 210.04 86.532 208.304C87.036 210.04 89.052 213.148 92.58 214.464C93.028 213.652 93.896 212.392 94.484 211.636C91.18 210.404 89.5 208.444 88.744 206.736L91.292 207.66ZM114.868 189.796L110.36 189.74C110.612 190.86 110.724 192.204 110.724 193.52C110.724 195.928 110.444 203.292 110.444 207.044C110.444 211.832 113.412 213.848 118.004 213.848C124.388 213.848 128.364 210.096 130.156 207.408L127.608 204.328C125.592 207.38 122.652 210.04 118.032 210.04C115.848 210.04 114.168 209.116 114.168 206.288C114.168 202.816 114.392 196.544 114.504 193.52C114.56 192.4 114.7 190.972 114.868 189.796ZM142.86 192.736L143.224 196.572C146.472 195.872 152.184 195.256 154.816 194.976C152.94 196.404 150.672 199.596 150.672 203.628C150.672 209.676 156.216 212.84 162.068 213.232L163.384 209.396C158.652 209.144 154.34 207.464 154.34 202.872C154.34 199.54 156.86 195.9 160.248 195.004C161.732 194.668 164.14 194.668 165.652 194.64L165.624 191.056C163.664 191.112 160.584 191.308 157.7 191.532C152.576 191.98 147.956 192.4 145.632 192.596C145.072 192.652 143.98 192.708 142.86 192.736ZM184.104 190.804L184.244 194.416C184.972 194.304 185.952 194.22 186.512 194.192C187.8 194.108 190.208 194.024 191.328 193.968C190.684 195.284 189.872 197.188 189.088 199.036C183.46 199.288 179.512 202.592 179.512 206.932C179.512 209.76 181.36 211.468 183.824 211.468C185.728 211.468 187.072 210.684 188.192 209.004C189.172 207.464 190.348 204.664 191.356 202.284C193.764 202.62 196.004 203.46 197.992 204.552C197.068 207.1 195.108 209.76 190.88 211.58L193.848 214.016C197.6 212.056 199.728 209.592 200.96 206.428C201.828 207.072 202.64 207.716 203.368 208.388L204.992 204.496C204.18 203.936 203.172 203.292 201.996 202.62C202.276 201.052 202.416 199.316 202.528 197.44L198.86 197.02C198.944 197.86 198.944 198.98 198.86 200.072C198.832 200.38 198.804 200.688 198.776 201.024C196.956 200.24 194.884 199.568 192.7 199.232C193.708 196.852 194.772 194.416 195.5 193.212C195.724 192.82 196.06 192.456 196.452 192.036L194.212 190.3C193.736 190.496 193.008 190.664 192.308 190.692C190.992 190.804 188.024 190.944 186.428 190.944C185.812 190.944 184.86 190.888 184.104 190.804ZM182.788 206.4C182.788 204.636 184.552 202.732 187.688 202.256C186.904 204.02 186.148 205.784 185.42 206.82C184.916 207.52 184.524 207.8 183.964 207.8C183.32 207.8 182.788 207.324 182.788 206.4ZM221.932 208.416C221.932 207.212 223.248 206.456 225.432 206.456C226.216 206.456 227 206.54 227.728 206.652C227.756 207.044 227.756 207.38 227.756 207.632C227.756 209.508 227.112 210.292 225.32 210.292C223.36 210.292 221.932 209.788 221.932 208.416ZM231.312 189.544H227.084C227.252 190.244 227.336 191.448 227.392 192.82C227.42 194.024 227.42 195.676 227.42 197.384C227.42 198.868 227.532 201.248 227.616 203.432C227.084 203.376 226.524 203.348 225.964 203.348C220.812 203.348 218.32 205.672 218.32 208.584C218.32 212.392 221.596 213.708 225.6 213.708C230.304 213.708 231.564 211.356 231.564 208.864C231.564 208.584 231.564 208.248 231.536 207.884C234.028 209.032 236.128 210.684 237.724 212.28L239.88 208.948C237.948 207.156 234.924 205.196 231.368 204.16C231.228 202.088 231.116 199.848 231.06 198.168C233.328 198.112 236.632 197.972 238.984 197.776L238.872 194.444C236.548 194.724 233.272 194.836 231.032 194.864C231.032 194.136 231.032 193.464 231.06 192.82C231.088 191.728 231.172 190.356 231.312 189.544ZM271.772 202.844C271.772 207.212 267.292 209.508 260.348 210.292L262.364 213.764C270.148 212.7 275.692 208.976 275.692 202.984C275.692 198.588 272.584 196.068 268.16 196.068C264.884 196.068 261.748 196.88 259.704 197.356C258.78 197.552 257.576 197.748 256.624 197.832L257.688 201.836C258.5 201.528 259.592 201.08 260.404 200.856C261.832 200.436 264.604 199.484 267.684 199.484C270.316 199.484 271.772 200.996 271.772 202.844ZM260.768 189.404L260.208 192.764C263.428 193.324 269.504 193.884 272.78 194.108L273.34 190.664C270.372 190.636 264.016 190.104 260.768 189.404ZM302.404 204.804H305.26L306.016 195.228L306.156 191.056H301.508L301.648 195.228L302.404 204.804ZM303.832 212.252C305.232 212.252 306.296 211.244 306.296 209.788C306.296 208.304 305.232 207.296 303.832 207.296C302.432 207.296 301.368 208.304 301.368 209.788C301.368 211.244 302.404 212.252 303.832 212.252Z" fill="white"/>
<path d="M44.884 76.298C44.668 78.134 44.326 79.754 43.804 81.158C43.354 80.834 42.904 80.528 42.472 80.258C42.76 78.998 43.048 77.666 43.336 76.298H44.884ZM45.73 74.282L45.37 74.336H43.75C43.984 73.166 44.2 72.014 44.38 70.952L42.364 70.772C42.202 71.87 41.986 73.094 41.752 74.336H39.97V76.298H41.374C40.942 78.386 40.492 80.402 40.078 81.878L41.842 82.796L41.986 82.238C42.31 82.472 42.634 82.724 42.958 82.976C42.202 84.29 41.23 85.298 40.024 85.928C40.456 86.324 41.014 87.08 41.302 87.62C42.634 86.792 43.714 85.73 44.578 84.326C45.226 84.938 45.784 85.532 46.162 86.036L47.458 84.308C47.008 83.732 46.306 83.084 45.514 82.436C46.342 80.366 46.828 77.756 47.026 74.48L45.73 74.282ZM56.674 77.882H52.714V76.856C53.974 75.668 55.306 73.994 56.26 72.59L54.856 71.546L54.424 71.654H47.386V73.634H52.984C52.48 74.39 51.85 75.182 51.256 75.794H50.59V77.882H46.792V79.898H50.59V85.154C50.59 85.406 50.5 85.478 50.194 85.478C49.906 85.496 48.952 85.478 48.034 85.442C48.34 86.036 48.7 86.954 48.808 87.548C50.122 87.566 51.094 87.494 51.814 87.152C52.516 86.828 52.714 86.252 52.714 85.172V79.898H56.674V77.882ZM60.778 76.856L60.904 78.98C63.622 79.142 66.52 79.142 68.734 78.998C69.022 79.61 69.364 80.24 69.742 80.87C69.202 80.816 68.23 80.726 67.474 80.654L67.294 82.364C68.608 82.508 70.552 82.742 71.56 82.94L72.658 81.284C72.334 80.978 72.082 80.708 71.848 80.366C71.524 79.898 71.218 79.34 70.912 78.764C71.992 78.62 72.964 78.422 73.792 78.206L73.432 76.082C72.55 76.316 71.47 76.622 69.994 76.802C69.886 76.514 69.778 76.244 69.688 75.992C69.598 75.722 69.508 75.434 69.418 75.146C70.606 74.984 71.74 74.75 72.73 74.48L72.442 72.41C71.29 72.77 70.138 73.022 68.896 73.184C68.77 72.572 68.662 71.942 68.572 71.294L66.16 71.564C66.376 72.194 66.556 72.77 66.736 73.346C65.08 73.4 63.244 73.328 61.102 73.076L61.228 75.146C63.496 75.362 65.602 75.398 67.294 75.308C67.402 75.614 67.51 75.956 67.654 76.37C67.726 76.568 67.798 76.784 67.888 77C65.89 77.126 63.46 77.108 60.778 76.856ZM64.234 81.032L62.002 80.6C61.588 81.464 61.192 82.346 61.228 83.498C61.264 86.072 63.496 87.134 67.096 87.134C68.572 87.134 70.21 87.008 71.47 86.792L71.596 84.506C70.318 84.758 68.788 84.902 67.078 84.902C64.702 84.902 63.442 84.362 63.442 83.03C63.442 82.256 63.802 81.626 64.234 81.032ZM85.546 71.51L83.062 71.258C83.026 72.194 82.828 73.274 82.576 74.264C82.018 74.318 81.478 74.336 80.938 74.336C80.272 74.336 79.318 74.3 78.544 74.21L78.706 76.298C79.48 76.352 80.218 76.37 80.956 76.37C81.262 76.37 81.568 76.37 81.892 76.352C81.1 78.296 79.642 80.942 78.22 82.706L80.398 83.822C81.856 81.788 83.386 78.638 84.25 76.118C85.456 75.938 86.572 75.704 87.4 75.488L87.328 73.4C86.626 73.616 85.78 73.814 84.898 73.976C85.168 73.004 85.402 72.086 85.546 71.51ZM84.61 83.966C84.61 83.336 85.276 82.868 86.32 82.868C86.824 82.868 87.31 82.94 87.778 83.048C87.778 83.192 87.778 83.3 87.778 83.408C87.778 84.398 87.4 85.082 86.158 85.082C85.168 85.082 84.61 84.632 84.61 83.966ZM89.758 77.108H87.508C87.544 78.206 87.634 79.808 87.706 81.14C87.292 81.104 86.896 81.068 86.464 81.068C83.962 81.068 82.486 82.418 82.486 84.182C82.486 86.162 84.25 87.152 86.482 87.152C89.038 87.152 89.956 85.856 89.956 84.182C89.956 84.128 89.956 84.056 89.956 84.002C90.946 84.596 91.756 85.352 92.386 85.928L93.592 84.002C92.674 83.174 91.414 82.274 89.866 81.698C89.83 80.798 89.776 79.934 89.758 79.412C89.74 78.62 89.704 77.864 89.758 77.108ZM92.854 78.062L94.132 76.172C93.214 75.506 90.982 74.282 89.686 73.724L88.534 75.506C89.758 76.064 91.81 77.234 92.854 78.062ZM107.146 74.03C106.552 74.696 105.814 75.29 104.968 75.812C104.05 75.29 103.24 74.696 102.592 74.03H107.146ZM109.018 72.122L108.64 72.212H104.05C104.302 71.87 104.536 71.51 104.752 71.15L102.394 70.736C101.494 72.338 99.766 74.048 97.12 75.236C97.606 75.578 98.308 76.316 98.632 76.82C99.55 76.334 100.378 75.794 101.116 75.236C101.692 75.83 102.322 76.37 103.006 76.856C101.134 77.666 99.01 78.224 96.85 78.53C97.192 78.998 97.642 79.862 97.84 80.438C100.414 79.97 102.916 79.214 105.058 78.08C107.074 79.07 109.432 79.754 112.078 80.114C112.348 79.574 112.906 78.674 113.338 78.206C111.034 77.954 108.928 77.486 107.11 76.802C108.496 75.758 109.666 74.498 110.476 72.95L109.018 72.122ZM112.96 82.598V80.708H106.012V79.214H103.852V80.708H96.958V82.598H102.268C100.792 83.912 98.614 85.046 96.526 85.622C96.976 86.054 97.588 86.846 97.912 87.368C100.054 86.594 102.25 85.208 103.852 83.552V87.566H106.012V83.534C107.65 85.154 109.846 86.522 111.988 87.26C112.294 86.756 112.942 85.91 113.41 85.478C111.34 84.92 109.18 83.858 107.686 82.598H112.96ZM119.242 70.826C118.36 73.382 116.83 75.938 115.246 77.558C115.606 78.098 116.2 79.25 116.398 79.79C116.758 79.394 117.118 78.944 117.478 78.494V87.548H119.512V75.308C120.196 74.066 120.79 72.752 121.276 71.474L119.242 70.826ZM132.184 79.43H127.576V76.334H131.338V74.246H127.576V70.988H125.416V74.246H123.922C124.12 73.562 124.3 72.878 124.444 72.176L122.374 71.744C121.96 73.94 121.222 76.226 120.25 77.63C120.772 77.864 121.708 78.368 122.104 78.656C122.5 78.026 122.896 77.216 123.22 76.334H125.416V79.43H120.556V81.518H125.416V87.566H127.576V81.518H132.184V79.43ZM134.992 73.652L135.226 76.118C137.314 75.668 140.986 75.272 142.678 75.092C141.454 76.01 139.996 78.062 139.996 80.654C139.996 84.56 143.56 86.576 147.34 86.828L148.186 84.362C145.126 84.2 142.354 83.138 142.354 80.168C142.354 78.026 143.992 75.704 146.17 75.128C147.124 74.894 148.672 74.894 149.644 74.876L149.626 72.572C148.348 72.626 146.386 72.734 144.532 72.896C141.238 73.166 138.268 73.436 136.756 73.562C136.414 73.598 135.712 73.634 134.992 73.652ZM147.07 76.64L145.738 77.198C146.314 78.008 146.692 78.71 147.142 79.7L148.51 79.088C148.168 78.386 147.52 77.288 147.07 76.64ZM149.086 75.812L147.772 76.424C148.348 77.216 148.762 77.882 149.248 78.854L150.598 78.206C150.22 77.504 149.536 76.442 149.086 75.812ZM159.112 81.95C158.536 82.148 157.942 82.328 157.348 82.508V78.908H158.968V76.946H157.348V73.778H159.274V71.78H153.334V73.778H155.314V76.946H153.496V78.908H155.314V83.138C154.486 83.372 153.748 83.57 153.118 83.732L153.604 85.91C155.332 85.352 157.492 84.668 159.472 83.966L159.112 81.95ZM161.884 76.514H163.738V78.062H161.884V76.514ZM161.884 73.328H163.738V74.84H161.884V73.328ZM167.32 74.84H165.538V73.328H167.32V74.84ZM167.32 78.062H165.538V76.514H167.32V78.062ZM165.736 85.064V83.354H169.552V81.428H165.736V79.88H169.354V71.51H159.958V79.88H163.558V81.428H159.832V83.354H163.558V85.064H158.59V87.008H170.164V85.064H165.736ZM182.638 78.584H185.95V79.664H182.638V78.584ZM182.638 75.974H185.95V77.018H182.638V75.974ZM182.638 73.346H185.95V74.39H182.638V73.346ZM178.858 82.04C179.668 82.796 180.73 83.894 181.234 84.542L182.782 83.246C182.35 82.742 181.576 81.986 180.874 81.338H188.002V71.654H180.694V81.176L180.334 80.852L178.858 82.04ZM175.42 81.554H177.454V77.792C178.102 78.386 178.768 79.034 179.182 79.484L180.298 77.774C179.884 77.432 178.174 76.208 177.454 75.794V75.128H179.992V73.31H177.454V70.772H175.42V73.31H172.468V75.128H175.078C174.376 76.694 173.206 78.26 172.018 79.142C172.45 79.484 173.08 80.15 173.386 80.618C174.124 79.97 174.808 79.07 175.42 78.008V81.554ZM174.106 86.576C174.736 85.532 175.258 83.93 175.618 82.652L173.71 81.896C173.404 83.174 172.792 84.65 172.144 85.604L174.106 86.576ZM179.542 85.316C178.57 85.316 178.39 85.244 178.39 84.704V82.274H176.266V84.74C176.266 86.612 176.896 87.206 179.344 87.206H182.584C184.564 87.206 185.158 86.576 185.428 84.002C184.834 83.894 183.934 83.588 183.502 83.246C183.394 85.064 183.268 85.316 182.422 85.316H179.542ZM184.924 82.526C185.626 83.732 186.616 85.316 187.048 86.27L189.046 85.244C188.56 84.308 187.516 82.778 186.796 81.662L184.924 82.526ZM207.136 79.664C207.136 75.74 204.328 72.644 199.864 72.644C195.202 72.644 191.602 76.19 191.602 80.348C191.602 83.39 193.258 85.586 195.256 85.586C197.218 85.586 198.766 83.354 199.846 79.718C200.368 78.026 200.674 76.37 200.926 74.84C203.356 75.254 204.706 77.108 204.706 79.592C204.706 82.22 202.906 83.876 200.602 84.416C200.116 84.524 199.612 84.632 198.928 84.704L200.278 86.846C204.814 86.144 207.136 83.462 207.136 79.664ZM193.906 80.114C193.906 78.134 195.508 75.506 198.478 74.894C198.28 76.388 197.938 77.918 197.524 79.25C196.786 81.68 196.084 82.814 195.328 82.814C194.626 82.814 193.906 81.932 193.906 80.114ZM222.31 85.28C221.752 85.28 221.662 85.19 221.662 84.596V80.222H226.378V78.152H219.448V75.236H224.974V73.184H219.448V70.754H217.27V73.184H214.948C215.146 72.572 215.326 71.996 215.488 71.438L213.292 71.006C212.914 72.842 212.068 75.272 210.898 76.748C211.402 76.946 212.302 77.378 212.788 77.684C213.292 77.018 213.76 76.154 214.174 75.236H217.27V78.152H210.376V80.222H214.624C214.354 82.598 213.67 84.614 210.088 85.784C210.574 86.234 211.168 87.098 211.42 87.674C215.56 86.108 216.478 83.426 216.874 80.222H219.502V84.596C219.502 86.63 219.97 87.296 221.986 87.296H224.074C225.748 87.296 226.324 86.522 226.54 83.678C225.964 83.534 225.028 83.174 224.596 82.814C224.524 84.938 224.416 85.28 223.876 85.28H222.31ZM233.074 83.102V82.508H236.206V83.102H233.074ZM233.074 80.942H236.206V81.518H233.074V80.942ZM241.606 80.942V81.518H238.312V80.942H241.606ZM241.606 83.102H238.312V82.508H241.606V83.102ZM245.188 84.704H238.312V84.128H243.694V79.898H238.312V79.376H244.612V78.026H238.312V77.63H240.112V76.442H245.17V75.236H240.112V74.66H244.522V73.49H240.112V72.914H244.828V71.708H240.112V70.772H238.15V77.054H236.206V78.026H234.244C235.846 77.234 236.422 76.064 236.422 74.696V70.754H234.496V71.708H229.816V72.914H234.496V73.49H230.23V74.66H234.496V74.678C234.496 74.84 234.496 74.984 234.478 75.128C232.534 75.236 230.662 75.308 229.276 75.362L229.402 76.604C230.68 76.532 232.282 76.442 233.92 76.316C233.47 76.748 232.66 77.054 231.256 77.198C231.454 77.396 231.706 77.72 231.94 78.026H230.014V79.376H236.206V79.898H231.058V84.128H236.206V84.704H229.312V86.108H236.206V87.548H238.312V86.108H245.188V84.704ZM255.898 71.564L253.522 71.366C253.486 72.014 253.36 72.716 253.162 73.436C252.874 73.436 252.568 73.436 252.298 73.436C251.38 73.436 250.048 73.364 249.13 73.22V75.326C250.12 75.398 251.434 75.434 252.172 75.434C252.244 75.434 252.316 75.434 252.406 75.434C251.596 77.054 250.318 78.656 248.428 80.402L250.354 81.842C250.966 81.05 251.488 80.402 252.028 79.862C252.712 79.196 253.828 78.62 254.836 78.62C255.34 78.62 255.826 78.782 256.096 79.232C254.044 80.294 251.884 81.734 251.884 84.038C251.884 86.36 253.972 87.044 256.798 87.044C258.49 87.044 260.704 86.9 261.892 86.738L261.964 84.416C260.38 84.722 258.382 84.92 256.852 84.92C255.088 84.92 254.242 84.65 254.242 83.66C254.242 82.76 254.962 82.058 256.312 81.284C256.294 82.076 256.276 82.94 256.222 83.48H258.382C258.364 82.652 258.328 81.32 258.31 80.312C259.408 79.808 260.434 79.412 261.244 79.088C261.856 78.854 262.81 78.494 263.386 78.332L262.486 76.244C261.82 76.586 261.19 76.874 260.488 77.18C259.75 77.504 258.994 77.81 258.058 78.242C257.662 77.324 256.762 76.856 255.664 76.856C255.07 76.856 254.098 77 253.63 77.216C253.99 76.694 254.35 76.046 254.656 75.38C256.6 75.326 258.814 75.182 260.524 74.93L260.542 72.842C258.958 73.112 257.158 73.274 255.448 73.364C255.682 72.608 255.808 72.014 255.898 71.564ZM274.456 73.4H281.26V75.146H283.15V71.582H272.638V75.254H274.456V73.4ZM275.356 73.832C275.248 75.866 274.906 76.892 272.278 77.486C272.638 77.846 273.124 78.548 273.304 78.998C276.544 78.17 277.138 76.568 277.3 73.832H275.356ZM272.062 78.296L270.604 78.71V76.118H272.242V74.156H270.604V70.772H268.66V74.156H266.77V76.118H268.66V79.232C267.85 79.43 267.094 79.628 266.482 79.754L266.95 81.806C267.472 81.662 268.066 81.5 268.66 81.32V85.298C268.66 85.532 268.57 85.604 268.354 85.604C268.138 85.622 267.508 85.622 266.86 85.586C267.112 86.162 267.346 87.044 267.4 87.566C268.588 87.584 269.344 87.512 269.902 87.17C270.442 86.828 270.604 86.288 270.604 85.298V80.744C271.18 80.582 271.756 80.402 272.332 80.222L272.062 78.296ZM283.186 81.95V80.042H278.848V78.332C279.154 78.512 279.586 78.584 280.198 78.584H281.62C282.808 78.584 283.294 78.098 283.474 76.208C282.97 76.118 282.178 75.83 281.818 75.542C281.782 76.73 281.71 76.892 281.386 76.892H280.522C280.198 76.892 280.126 76.856 280.126 76.406V73.814H278.218V76.424C278.218 77.36 278.326 77.936 278.758 78.26H276.724V80.042H272.458V81.95H275.572C274.564 83.408 273.016 84.686 271.36 85.37C271.828 85.766 272.422 86.522 272.728 87.008C274.258 86.216 275.662 84.938 276.724 83.426V87.548H278.848V83.444C279.82 84.83 281.026 86.072 282.286 86.846C282.61 86.342 283.258 85.586 283.726 85.208C282.34 84.506 280.954 83.264 279.982 81.95H283.186ZM298.72 71.87H296.308C296.362 72.23 296.434 73.076 296.434 73.526V75.56C294.796 75.704 293.05 75.866 291.52 76.01C291.52 75.308 291.538 74.696 291.538 74.282C291.538 73.526 291.556 73.022 291.646 72.41H289.108C289.198 73.058 289.252 73.67 289.252 74.408C289.252 74.714 289.252 75.38 289.252 76.226C288.676 76.28 288.208 76.316 287.884 76.352C286.966 76.442 286.138 76.478 285.616 76.478L285.868 78.782C286.336 78.71 287.452 78.53 288.028 78.458C288.334 78.422 288.748 78.386 289.234 78.332C289.234 80.006 289.234 81.752 289.252 82.526C289.342 85.64 289.9 86.612 294.562 86.612C296.272 86.612 298.486 86.468 299.692 86.324L299.782 83.876C298.432 84.11 296.164 84.326 294.4 84.326C291.7 84.326 291.538 83.93 291.502 82.166C291.466 81.392 291.484 79.736 291.502 78.08C293.032 77.918 294.796 77.756 296.398 77.63C296.38 78.494 296.326 79.322 296.254 79.808C296.218 80.15 296.056 80.222 295.696 80.222C295.336 80.222 294.598 80.114 294.04 79.988L293.986 81.986C294.616 82.076 296.056 82.256 296.704 82.256C297.622 82.256 298.072 82.022 298.27 81.068C298.414 80.312 298.486 78.836 298.54 77.468C299.062 77.432 299.53 77.414 299.926 77.396C300.394 77.378 301.348 77.36 301.654 77.378V75.164C301.132 75.218 300.43 75.254 299.926 75.29C299.512 75.308 299.062 75.344 298.576 75.38C298.594 74.786 298.594 74.138 298.612 73.436C298.63 72.95 298.684 72.158 298.72 71.87ZM308.962 83.966C308.962 83.354 309.664 82.85 310.942 82.85C311.446 82.85 311.932 82.904 312.418 82.976C312.436 83.3 312.436 83.552 312.436 83.75C312.436 84.794 311.806 85.064 310.852 85.064C309.61 85.064 308.962 84.65 308.962 83.966ZM314.596 71.438H312.166C312.238 71.78 312.274 72.338 312.274 72.68C312.274 72.896 312.274 73.184 312.274 73.526C312.04 73.526 311.806 73.526 311.572 73.526C310.474 73.526 308.422 73.346 307.126 73.13L307.18 75.182C308.368 75.344 310.456 75.506 311.59 75.506C311.806 75.506 312.022 75.506 312.256 75.506C312.238 76.118 312.238 76.766 312.238 77.36C311.95 77.36 311.662 77.36 311.374 77.36C310.42 77.36 308.206 77.234 307.036 77.018L307.054 79.142C308.242 79.286 310.294 79.376 311.338 79.376C311.662 79.376 311.968 79.376 312.274 79.376C312.292 79.916 312.31 80.492 312.346 81.05C311.986 81.014 311.608 80.996 311.23 80.996C308.458 80.996 306.784 82.274 306.784 84.092C306.784 86 308.296 87.098 311.176 87.098C313.552 87.098 314.722 85.91 314.722 84.38C314.722 84.182 314.722 83.966 314.704 83.714C316.144 84.362 317.368 85.316 318.34 86.216L319.636 84.2C318.592 83.336 316.864 82.13 314.596 81.482C314.542 80.762 314.506 80.024 314.47 79.34C316.198 79.286 317.602 79.16 319.222 78.98L319.24 76.856C317.782 77.054 316.252 77.198 314.434 77.288C314.434 76.73 314.434 76.064 314.434 75.434C316.18 75.344 317.818 75.182 319.006 75.038L319.024 72.968C317.44 73.238 315.946 73.382 314.47 73.454C314.47 73.166 314.47 72.896 314.488 72.716C314.506 72.248 314.542 71.798 314.596 71.438ZM334.504 71.492H331.894C331.948 71.708 332.02 72.32 332.074 73.058C332.092 73.202 332.092 73.382 332.11 73.616C329.662 73.652 326.386 73.724 324.334 73.724L324.388 75.902C326.602 75.776 329.41 75.668 332.128 75.632C332.146 76.028 332.146 76.442 332.146 76.838C331.912 76.802 331.678 76.784 331.426 76.784C329.464 76.784 327.826 78.116 327.826 80.15C327.826 82.346 329.536 83.462 330.922 83.462C331.21 83.462 331.48 83.426 331.732 83.372C330.742 84.452 329.158 85.046 327.34 85.424L329.266 87.332C333.658 86.108 335.026 83.12 335.026 80.78C335.026 79.844 334.81 78.998 334.378 78.314C334.378 77.522 334.36 76.532 334.36 75.614C336.808 75.614 338.482 75.65 339.562 75.704L339.58 73.58C338.644 73.562 336.178 73.598 334.36 73.598C334.378 73.382 334.378 73.184 334.378 73.04C334.396 72.752 334.468 71.78 334.504 71.492ZM329.986 80.114C329.986 79.16 330.67 78.674 331.372 78.674C331.858 78.674 332.29 78.89 332.542 79.304C332.794 80.888 332.128 81.464 331.372 81.464C330.652 81.464 329.986 80.942 329.986 80.114Z" fill="#5D5FEF"/>
</g>
<defs>
<clipPath id="clip0_0_1">
<rect width="680" height="320" fill="white"/>
</clipPath>
<clipPath id="clip1_0_1">
<rect width="403" height="264" fill="white" transform="translate(329 44)"/>
</clipPath>
</defs>
</svg>
