<svg width="16" height="14" viewBox="0 0 16 14" fill="none" xmlns="http://www.w3.org/2000/svg">
<path d="M7.26367 1.08203L5.61328 4.45898L1.88086 4.99219C1.2207 5.09375 0.966797 5.90625 1.44922 6.38867L4.11523 9.00391L3.48047 12.6855C3.37891 13.3457 4.08984 13.8535 4.67383 13.5488L8 11.7969L11.3008 13.5488C11.8848 13.8535 12.5957 13.3457 12.4941 12.6855L11.8594 9.00391L14.5254 6.38867C15.0078 5.90625 14.7539 5.09375 14.0938 4.99219L10.3867 4.45898L8.71094 1.08203C8.43164 0.498047 7.56836 0.472656 7.26367 1.08203Z" fill="white"/>
<path d="M7.26367 1.08203L6.36921 0.634799L6.36523 0.642942L7.26367 1.08203ZM5.61328 4.45898L5.7547 5.44893L6.27912 5.37402L6.51172 4.89807L5.61328 4.45898ZM1.88086 4.99219L1.73943 4.00218L1.7288 4.00382L1.88086 4.99219ZM1.44922 6.38867L0.742079 7.09581L0.748943 7.10254L1.44922 6.38867ZM4.11523 9.00391L5.10069 9.17381L5.18977 8.65717L4.81551 8.29003L4.11523 9.00391ZM3.48047 12.6855L2.49501 12.5156L2.49347 12.5246L2.4921 12.5335L3.48047 12.6855ZM4.67383 13.5488L5.1364 14.4354L5.13985 14.4336L4.67383 13.5488ZM8 11.7969L8.46882 10.9136L8.00179 10.6657L7.53398 10.9121L8 11.7969ZM11.3008 13.5488L10.8319 14.4321L10.8382 14.4354L11.3008 13.5488ZM12.4941 12.6855L13.4825 12.5335L13.4811 12.5246L13.4796 12.5156L12.4941 12.6855ZM11.8594 9.00391L11.1591 8.29003L10.7848 8.65717L10.8739 9.17381L11.8594 9.00391ZM14.5254 6.38867L15.2257 7.10258L15.2325 7.09578L14.5254 6.38867ZM14.0938 4.99219L14.2458 4.00377L14.2361 4.00237L14.0938 4.99219ZM10.3867 4.45898L9.49095 4.9035L9.72444 5.37402L10.2443 5.4488L10.3867 4.45898ZM8.71094 1.08203L7.8088 1.51349L7.81194 1.52004L7.81517 1.52655L8.71094 1.08203ZM6.36523 0.642942L4.71484 4.0199L6.51172 4.89807L8.16212 1.52112L6.36523 0.642942ZM5.47186 3.46903L1.73944 4.00224L2.02228 5.98214L5.7547 5.44893L5.47186 3.46903ZM1.7288 4.00382C0.214193 4.23683 -0.287142 6.06652 0.742112 7.09578L2.15633 5.68157C2.16927 5.69451 2.1864 5.72055 2.19452 5.7556C2.20184 5.78721 2.1999 5.81737 2.19164 5.84401C2.18338 5.87061 2.16629 5.90152 2.13529 5.92936C2.10124 5.95994 2.062 5.97608 2.03292 5.98056L1.7288 4.00382ZM0.748943 7.10254L3.41496 9.71778L4.81551 8.29003L2.14949 5.6748L0.748943 7.10254ZM3.12977 8.834L2.49501 12.5156L4.46593 12.8555L5.10069 9.17381L3.12977 8.834ZM2.4921 12.5335C2.26716 13.9956 3.81871 15.1229 5.13639 14.4354L4.21126 12.6622C4.24535 12.6445 4.28862 12.6364 4.32861 12.6405C4.36418 12.6442 4.38865 12.6562 4.40437 12.6675C4.42017 12.6788 4.43867 12.6978 4.45278 12.729C4.46872 12.7641 4.47394 12.8045 4.46884 12.8376L2.4921 12.5335ZM5.13985 14.4336L8.46602 12.6816L7.53398 10.9121L4.2078 12.6641L5.13985 14.4336ZM7.53118 12.6802L10.832 14.4321L11.7696 12.6655L8.46882 10.9136L7.53118 12.6802ZM10.8382 14.4354C12.1559 15.1229 13.7074 13.9956 13.4825 12.5335L11.5058 12.8376C11.5007 12.8045 11.5059 12.7641 11.5218 12.729C11.5359 12.6978 11.5544 12.6788 11.5702 12.6675C11.586 12.6562 11.6104 12.6442 11.646 12.6405C11.686 12.6364 11.7293 12.6445 11.7633 12.6622L10.8382 14.4354ZM13.4796 12.5156L12.8448 8.834L10.8739 9.17381L11.5087 12.8555L13.4796 12.5156ZM12.5597 9.71778L15.2257 7.10254L13.8251 5.6748L11.1591 8.29003L12.5597 9.71778ZM15.2325 7.09578C16.2618 6.06652 15.7604 4.23683 14.2458 4.00382L13.9417 5.98056C13.9126 5.97608 13.8734 5.95994 13.8393 5.92936C13.8083 5.90152 13.7912 5.87061 13.783 5.84401C13.7747 5.81737 13.7728 5.78721 13.7801 5.7556C13.7882 5.72055 13.8053 5.69451 13.8183 5.68157L15.2325 7.09578ZM14.2361 4.00237L10.5291 3.46917L10.2443 5.4488L13.9514 5.982L14.2361 4.00237ZM11.2825 4.01447L9.60671 0.637514L7.81517 1.52655L9.49095 4.9035L11.2825 4.01447ZM9.61307 0.650576C8.97764 -0.678044 7.04909 -0.724869 6.36924 0.634818L8.1581 1.52924C8.1458 1.55384 8.11913 1.58566 8.08011 1.60825C8.04512 1.62851 8.01205 1.63475 7.98584 1.63446C7.93755 1.63393 7.85177 1.60332 7.8088 1.51349L9.61307 0.650576Z" fill="#FFDA58"/>
</svg>
